<?xml version="1.0" encoding="utf-8"?>
<!-- Generator: Adobe Illustrator 22.0.1, SVG Export Plug-In . SVG Version: 6.00 Build 0)  -->
<svg version="1.1" id="Layer_1" xmlns="http://www.w3.org/2000/svg" xmlns:xlink="http://www.w3.org/1999/xlink" x="0px" y="0px"
	 viewBox="0 0 44 46" style="enable-background:new 0 0 44 46;" xml:space="preserve">
<style type="text/css">
	.st0{enable-background:new    ;}
</style>
<g class="st0">
	<path d="M0.6,19.5V3.7c0-0.1,0-0.2,0.1-0.3C0.8,3.2,0.9,3.2,1,3.2h1.4c0.1,0,0.2,0,0.3,0.1c0.1,0.1,0.1,0.2,0.1,0.3v7l0.3-0.1
		c0.2-0.1,0.4-0.1,0.5-0.2c0.2-0.1,0.4-0.1,0.7-0.2c0.3,0,0.6-0.1,0.9-0.1c1.3,0,2.4,0.5,3.4,1.5c0.9,1,1.4,2.2,1.4,3.6
		c0,1.4-0.4,2.6-1.3,3.6c-0.9,1-1.9,1.5-3.2,1.5c-0.6,0-1.1-0.1-1.6-0.3c-0.5-0.2-0.9-0.4-1.1-0.7l-0.3-0.3l-0.2,0.7
		C2.1,19.9,1.9,20,1.7,20H1c-0.1,0-0.2,0-0.3-0.1C0.6,19.8,0.6,19.7,0.6,19.5z M2.8,16.7c0.1,0.2,0.2,0.3,0.3,0.5
		c0.1,0.2,0.4,0.4,0.8,0.6c0.4,0.2,0.8,0.3,1.2,0.3c0.8,0,1.4-0.3,1.8-0.9c0.5-0.6,0.7-1.3,0.7-2.1s-0.3-1.5-0.8-2.1
		c-0.5-0.6-1.2-0.9-2-0.9c-0.4,0-0.7,0-1.1,0.1c-0.4,0.1-0.6,0.2-0.8,0.3l-0.2,0.1V16.7z"/>
	<path d="M11.2,15.2c0-1.4,0.5-2.5,1.4-3.5c0.9-1,2.1-1.5,3.4-1.5c1.3,0,2.5,0.5,3.4,1.5c0.9,1,1.4,2.2,1.4,3.5
		c0,1.4-0.5,2.6-1.4,3.6c-0.9,1-2.1,1.5-3.4,1.5c-1.3,0-2.5-0.5-3.4-1.5C11.7,17.8,11.2,16.6,11.2,15.2z M13.3,15.2
		c0,0.8,0.3,1.5,0.8,2.1s1.2,0.9,1.9,0.9c0.8,0,1.4-0.3,1.9-0.9c0.5-0.6,0.8-1.3,0.8-2.1c0-0.8-0.3-1.5-0.8-2.1
		c-0.5-0.6-1.2-0.9-1.9-0.9c-0.8,0-1.4,0.3-1.9,0.9S13.3,14.4,13.3,15.2z"/>
	<path d="M22.2,15.2c0-1.4,0.5-2.5,1.4-3.5c0.9-1,2.1-1.5,3.4-1.5s2.5,0.5,3.4,1.5s1.4,2.2,1.4,3.5c0,1.4-0.5,2.6-1.4,3.6
		s-2.1,1.5-3.4,1.5s-2.5-0.5-3.4-1.5C22.6,17.8,22.2,16.6,22.2,15.2z M24.3,15.2c0,0.8,0.3,1.5,0.8,2.1s1.2,0.9,1.9,0.9
		s1.4-0.3,1.9-0.9s0.8-1.3,0.8-2.1c0-0.8-0.3-1.5-0.8-2.1s-1.2-0.9-1.9-0.9s-1.4,0.3-1.9,0.9S24.3,14.4,24.3,15.2z"/>
	<path d="M33.8,19.5V3.7c0-0.1,0-0.2,0.1-0.3c0.1-0.1,0.2-0.1,0.3-0.1h1.4c0.1,0,0.2,0,0.3,0.1c0.1,0.1,0.1,0.2,0.1,0.3V14l3.7-3.4
		c0.2-0.2,0.4-0.3,0.6-0.3h1.7c0.2,0,0.3,0.1,0.4,0.3s0,0.3-0.1,0.4l-4,3.6l4.7,4.7c0.1,0.1,0.1,0.2,0.1,0.4c0,0.2-0.2,0.2-0.4,0.2
		h-2c-0.2,0-0.3-0.1-0.4-0.2l-4.3-4.5v4.2c0,0.1,0,0.2-0.1,0.3C35.9,20,35.8,20,35.7,20h-1.4c-0.1,0-0.2,0-0.3-0.1
		C33.9,19.8,33.8,19.7,33.8,19.5z"/>
</g>
<g class="st0">
	<path d="M4.1,47.5v-8.7c0-0.1,0-0.2,0.1-0.3s0.2-0.1,0.3-0.1h0.7c0.2,0,0.3,0.1,0.4,0.3l0.3,0.8C6,39.4,6.2,39.2,6.4,39
		c0.2-0.2,0.6-0.4,1.2-0.6c0.5-0.2,1.1-0.3,1.7-0.3c1.4,0,2.4,0.4,3,1.3c0.6,0.8,1,1.9,1,3.3v4.8c0,0.1,0,0.2-0.1,0.3
		C13,48,12.9,48,12.8,48h-1.4c-0.1,0-0.2,0-0.3-0.1S11,47.7,11,47.5v-4.9c0-0.8-0.2-1.4-0.5-1.8c-0.4-0.4-0.8-0.6-1.5-0.6
		c-0.7,0-1.2,0.2-1.8,0.5c-0.5,0.4-0.8,0.7-0.9,0.9v5.9c0,0.3-0.2,0.5-0.6,0.5H4.5c-0.1,0-0.2,0-0.3-0.1C4.1,47.8,4.1,47.7,4.1,47.5
		z"/>
	<path d="M15.1,43.2c0-1.4,0.5-2.5,1.4-3.5c0.9-1,2.1-1.5,3.4-1.5c1.3,0,2.5,0.5,3.4,1.5c0.9,1,1.4,2.2,1.4,3.5
		c0,1.4-0.5,2.6-1.4,3.6c-0.9,1-2.1,1.5-3.4,1.5c-1.3,0-2.5-0.5-3.4-1.5C15.6,45.8,15.1,44.6,15.1,43.2z M17.3,43.2
		c0,0.8,0.3,1.5,0.8,2.1s1.2,0.9,1.9,0.9c0.8,0,1.4-0.3,1.9-0.9c0.5-0.6,0.8-1.3,0.8-2.1c0-0.8-0.3-1.5-0.8-2.1
		c-0.5-0.6-1.2-0.9-1.9-0.9c-0.8,0-1.4,0.3-1.9,0.9S17.3,42.4,17.3,43.2z"/>
	<path d="M28.8,48l-2.9-9c-0.1-0.2-0.1-0.3,0-0.4c0.1-0.1,0.2-0.2,0.3-0.2h1.3c0.2,0,0.4,0.1,0.4,0.3l1.6,5.3h0l2.6-5.6
		c0.1-0.2,0.2-0.2,0.4-0.2h0.1c0.2,0,0.3,0.1,0.4,0.2l2.5,5.6h0l1.6-5.3c0.1-0.2,0.3-0.3,0.7-0.3H39c0.2,0,0.3,0.1,0.4,0.2
		c0.1,0.1,0.1,0.2,0,0.4l-2.8,9c0,0.2-0.2,0.2-0.4,0.2H36c-0.2,0-0.3-0.1-0.4-0.2l-3-6.4h0L29.7,48c-0.1,0.1-0.2,0.2-0.4,0.2h-0.1
		C29,48.2,28.8,48.2,28.8,48z"/>
</g>
</svg>
