<svg xmlns="http://www.w3.org/2000/svg" width="29" height="29" viewBox="0 0 29 29">
    <path fill-rule="evenodd" d="M.696 0C.429.002.19.166.09.414c-.099.248-.038.531.153.717l13.332 13.35L.244 27.83c-.195.158-.284.414-.227.659.056.245.247.437.492.493.245.057.501-.032.659-.228L14.5 15.405l13.332 13.35c.158.196.414.285.659.228.245-.056.436-.248.492-.493.057-.245-.032-.501-.227-.66L15.424 14.48 28.756 1.13c.194-.188.254-.476.15-.726-.105-.25-.352-.41-.622-.404-.172.007-.334.08-.452.206L14.5 13.556 1.168.206C1.045.076.875.002.696 0z"/>
</svg>
