<?xml version="1.0" encoding="utf-8"?>
<!-- Generator: Adobe Illustrator 24.0.1, SVG Export Plug-In . SVG Version: 6.00 Build 0)  -->
<svg version="1.1" id="Layer_1" xmlns="http://www.w3.org/2000/svg" xmlns:xlink="http://www.w3.org/1999/xlink" x="0px" y="0px"
	 viewBox="0 0 908 93.9" style="enable-background:new 0 0 908 93.9;" xml:space="preserve">
<style type="text/css">
	.st0{opacity:0.168;}
</style>
<g class="st0">
	<path d="M20.4,57.3c13.2,0,24.5-6.6,24.5-17.6c0-19.4-33.1-16.7-33.1-29.4c0-4.8,4.5-7.9,10.6-7.9c11.9,0,16.7,9.7,17.9,18.5h0.5
		l-1-19.1L34,3.4c-2.8-0.8-8.1-1.7-12.5-1.7C10.6,1.7,0,7.8,0,18.1c0,18.8,33.5,17.3,33.5,30.1c0,5.2-5.1,8.4-12.5,8.4
		c-14,0-19-12.8-20.2-21.9H0.3l1.2,22.5l5.7-1.6C10,56.3,15.3,57.3,20.4,57.3L20.4,57.3z M81.6,56.7v-0.5c-9,0-9.3-4-9.3-13.2v-9
		h2.4c11.1,0,27.5-2.6,27.5-15.9c0-11.3-8.9-15.8-25.7-15.8H48.2v0.5c8.1,0,8.3,3.9,8.3,12.9v27.5c0,8.7-0.2,12.9-8.3,12.9v0.5
		C48.2,56.7,81.6,56.7,81.6,56.7z M74.1,33.5h-2.1V2.9h2.2c7.8,0,10.8,4.7,10.8,15.3C85.1,28.9,82.1,33.5,74.1,33.5L74.1,33.5z
		 M115.5,56.7v-0.5c-10.6,0-8.1-10.5-5.1-18.3h17.4l2.6,5.8c3,6.6,3.7,12.5-3.5,12.5v0.5h32.6v-0.5c-5.5,0-8.5-4.1-12.9-13.2
		L126.3,0l-14.9,33.5c-4.1,9.2-9.7,22.6-18.9,22.6v0.5L115.5,56.7L115.5,56.7z M127.7,37h-17l1.5-3.5l6.9-15.6
		C119.1,17.9,127.7,37,127.7,37z M187.6,57.3c4.8,0,9.5-0.9,12.1-1.7l5.6,1.6l1.2-21.7H206c-0.9,9-6.1,21.2-17.9,21.2
		c-12.5,0-14.3-15.8-14.3-27.1s1.7-27.1,14.3-27.1c11.8,0,17,12.1,17.9,21.2h0.5l-1.2-21.7l-5.6,1.6c-2.7-0.8-7.4-1.7-12.1-1.7
		c-16.3,0-30.4,11.4-30.4,27.8S171.3,57.3,187.6,57.3z M261.9,56.7l3.6-23.1h-0.8C262.5,47.3,254.7,56,239.5,56
		c-3.4,0-4.6-1.6-4.6-7.1V29.2c8.4,0,14.3,4.8,14,12.4h0.5l1.3-25.1h-0.5c-0.5,8.3-6.8,12.2-15.3,12.2V3h7.6
		c13.1,0,18.2,6.3,19.5,18h0.8l-1.9-18.7h-49.8v0.5c8.2,0,8.2,4,8.2,13.4v26.4c0,9.1,0,13.4-8.2,13.4v0.5
		C211.1,56.7,261.9,56.7,261.9,56.7z M330.1,56.7v-0.5c-8.2,0-8.2-4.3-8.2-13.4V3c13.1,0,18.2,5.9,19.5,17.6h0.8l-1.9-18.3h-52.4
		L286,20.6h0.8C288.1,8.9,293.2,3,306.3,3v40.2c0,8.7-0.2,12.9-8.2,12.9v0.5L330.1,56.7L330.1,56.7z M375.1,57.3
		c14.7,0,28.9-10.1,28.9-27.8c0-16.6-13-27.8-28.9-27.8c-16,0-28.9,11.2-28.9,27.8C346.2,47.2,360.4,57.3,375.1,57.3L375.1,57.3z
		 M374.8,56.7c-11.6,0-11.6-18.1-11.6-27.2c0-8.9,0-27.2,11.6-27.2c11.4,0,11.6,17.6,11.6,26.6v1.1
		C386.5,39.3,386.2,56.7,374.8,56.7L374.8,56.7z M455.1,56.7c15.1,0,24.4-5.8,24.4-15.5c0-12.4-17-14.4-25.1-14.4v-0.2
		c7.6-0.2,21.6-1.4,21.6-11.6c0-12.5-16.7-12.6-29.9-12.6h-21.7v0.5c8,0,8.2,3.9,8.2,12.9v27.5c0,8.7-0.2,12.9-8.2,12.9v0.5
		L455.1,56.7L455.1,56.7z M450.5,26.6h-2.1V2.9h2c8.3,0,10.5,4.2,10.5,11.7C460.8,22.9,458.4,26.6,450.5,26.6z M453.5,56.1
		c-5,0-5.2-1.7-5.2-9V27.2h2.6c10.3,0,12.2,5.3,12.2,14C463.1,51.3,460.2,56.1,453.5,56.1L453.5,56.1z M531.5,56.7l3.6-23.1h-0.8
		C532,47.3,524.2,56,509.1,56c-3.4,0-4.6-1.6-4.6-7.1V29.2c8.4,0,14.3,4.8,14,12.4h0.5l1.3-25.1h-0.5c-0.5,8.3-6.8,12.2-15.3,12.2V3
		h7.6c13,0,18.2,6.3,19.5,18h0.8l-1.9-18.7h-49.8v0.5c8,0,8.2,3.9,8.2,12.9v27.5c0,8.7-0.2,12.9-8.2,12.9v0.5L531.5,56.7L531.5,56.7
		z M584.8,56.7v-0.5c-5.2,0-5.9-2.8-5.9-11.1V29.5h17.4V45c0,8.3-0.7,11.1-5.9,11.1v0.5h29.8v-0.5c-8.2,0-8.2-4.3-8.2-13.4V16.3
		c0-9.4,0-13.4,8.2-13.4V2.3h-29.8v0.5c5.2,0,5.9,2.8,5.9,11.1v14.8H579V14c0-8.3,0.7-11.1,5.9-11.1V2.3H555v0.5
		c8.1,0,8.2,3.9,8.2,12.9v27.5c0,8.7-0.2,12.9-8.2,12.9v0.5L584.8,56.7L584.8,56.7z M655,57.3c13.6,0,19.9-5.8,19.9-19V26.9
		c0-12.1,0.5-24,12.3-24V2.3h-25.1v0.5c11.5,0,11.9,11.7,11.9,22.2v13.1c0,12.5-6.2,18-16.1,18c-10.8,0-11.5-11.6-11.5-21.4V16.3
		c0-9.9,0.8-13.4,6.6-13.4V2.3h-30.6v0.5c8.1,0,8.2,3.9,8.2,12.9v21.6C630.8,53.8,639.9,57.3,655,57.3z M724,59l21.1-54.4v38.5
		c0,9.9-0.2,12.7-7.5,12.7v0.5H769v-0.5c-8.2,0-8.2-4.3-8.2-13.4V16.2c0-9.3,0-13.4,8.2-13.4V2.3h-23.9l-13.4,34.5L718.4,2.3h-27.1
		v0.5c9,0,10.5,3.5,10.5,12V32c0,11-0.2,23.9-12.3,23.9v0.5h25v-0.5c-11.8,0-11.9-12.3-11.9-22.4V5.8L724,59z M794.2,56.7v-0.5
		c-10.6,0-8.1-10.5-5.1-18.3h17.4l2.6,5.8c3,6.6,3.7,12.5-3.5,12.5v0.5h32.6v-0.5c-5.5,0-8.5-4.1-12.9-13.2L805,0l-14.9,33.5
		c-4.1,9.2-9.7,22.6-18.9,22.6v0.5C771.2,56.7,794.2,56.7,794.2,56.7z M805.8,37h-17l1.5-3.5l6.9-15.6L805.8,37z M895.6,59V26.7
		c0-12,0.5-23.9,12.4-23.9V2.3h-25.1v0.5c11.6,0,11.9,11.8,11.9,22.4v10l-28.7-33h-26.2v0.5c11.5,0,12.4,5.9,12.4,14.4V32
		c0,12-0.5,23.9-12.4,23.9v0.5H865v-0.5c-11.6,0-11.9-11.8-11.9-22.4V10.7L895.6,59z M20.4,150.3c13.2,0,24.5-6.6,24.5-17.6
		c0-19.4-33.1-16.7-33.1-29.4c0-4.8,4.5-7.9,10.6-7.9c11.9,0,16.7,9.7,17.9,18.5h0.5l-1-19.1L34,96.4c-2.8-0.8-8.1-1.7-12.5-1.7
		c-11,0-21.6,6.1-21.6,16.3c0,18.8,33.5,17.3,33.5,30.1c0,5.2-5.1,8.4-12.5,8.4c-14,0-19-12.8-20.2-21.9H0.3l1.2,22.5l5.7-1.6
		C10,149.3,15.3,150.3,20.4,150.3L20.4,150.3z M81.6,149.7v-0.5c-9,0-9.3-4-9.3-13.2v-9h2.4c11.1,0,27.5-2.6,27.5-15.9
		c0-11.3-8.9-15.8-25.7-15.8H48.2v0.5c8.1,0,8.3,3.9,8.3,12.9v27.5c0,8.7-0.2,12.9-8.3,12.9v0.5H81.6z M74.1,126.5h-2.1V95.9h2.2
		c7.8,0,10.8,4.7,10.8,15.3C85.1,121.9,82.1,126.5,74.1,126.5L74.1,126.5z M115.5,149.7v-0.5c-10.6,0-8.1-10.5-5.1-18.3h17.4
		l2.6,5.8c3,6.6,3.7,12.5-3.5,12.5v0.5h32.6v-0.5c-5.5,0-8.5-4.1-12.9-13.2L126.3,93l-14.9,33.5c-4.1,9.2-9.7,22.6-18.9,22.6v0.5
		L115.5,149.7L115.5,149.7z M127.7,130h-17l1.5-3.5l6.9-15.6C119.1,110.9,127.7,130,127.7,130z M187.6,150.3c4.8,0,9.5-0.9,12.1-1.7
		l5.6,1.6l1.2-21.7H206c-0.9,9-6.1,21.2-17.9,21.2c-12.5,0-14.3-15.8-14.3-27.1s1.7-27.1,14.3-27.1c11.8,0,17,12.1,17.9,21.2h0.5
		l-1.2-21.7l-5.6,1.6c-2.7-0.8-7.4-1.7-12.1-1.7c-16.3,0-30.4,11.4-30.4,27.8S171.3,150.3,187.6,150.3z M261.9,149.7l3.6-23.1h-0.8
		c-2.4,13.7-10.2,22.4-25.3,22.4c-3.4,0-4.6-1.6-4.6-7.1v-19.7c8.4,0,14.3,4.8,14,12.4h0.5l1.3-25.1h-0.5
		c-0.5,8.3-6.8,12.2-15.3,12.2V96h7.6c13.1,0,18.2,6.3,19.5,18h0.8l-1.9-18.7h-49.8v0.5c8.2,0,8.2,4,8.2,13.4v26.4
		c0,9.1,0,13.4-8.2,13.4v0.5H261.9z M330.1,149.7v-0.5c-8.2,0-8.2-4.4-8.2-13.4V96c13.1,0,18.2,5.9,19.5,17.6h0.8l-1.9-18.3h-52.4
		l-1.9,18.3h0.8c1.3-11.7,6.5-17.6,19.5-17.6v40.2c0,8.7-0.2,12.9-8.2,12.9v0.5H330.1L330.1,149.7z M375.1,150.3
		c14.7,0,28.9-10.1,28.9-27.8c0-16.6-13-27.8-28.9-27.8c-16,0-28.9,11.2-28.9,27.8C346.2,140.2,360.4,150.3,375.1,150.3L375.1,150.3
		z M374.8,149.7c-11.6,0-11.6-18.1-11.6-27.2c0-8.9,0-27.2,11.6-27.2c11.4,0,11.6,17.6,11.6,26.6v1.1
		C386.5,132.3,386.2,149.7,374.8,149.7L374.8,149.7z M455.1,149.7c15.1,0,24.4-5.8,24.4-15.5c0-12.3-17-14.4-25.1-14.4v-0.2
		c7.6-0.2,21.6-1.4,21.6-11.7c0-12.5-16.7-12.6-29.9-12.6h-21.7v0.5c8,0,8.2,3.9,8.2,12.9v27.5c0,8.7-0.2,12.9-8.2,12.9v0.5H455.1
		L455.1,149.7z M450.5,119.6h-2.1V95.9h2c8.3,0,10.5,4.2,10.5,11.7C460.8,115.9,458.4,119.6,450.5,119.6z M453.5,149.1
		c-5,0-5.2-1.7-5.2-9v-19.9h2.6c10.3,0,12.2,5.3,12.2,14C463.1,144.3,460.2,149.1,453.5,149.1L453.5,149.1z M531.5,149.7l3.6-23.1
		h-0.8c-2.4,13.7-10.2,22.4-25.3,22.4c-3.4,0-4.6-1.6-4.6-7.1v-19.7c8.4,0,14.3,4.8,14,12.4h0.5l1.3-25.1h-0.5
		c-0.5,8.3-6.8,12.2-15.3,12.2V96h7.6c13,0,18.2,6.3,19.5,18h0.8l-1.9-18.7h-49.8v0.5c8,0,8.2,3.9,8.2,12.9v27.5
		c0,8.7-0.2,12.9-8.2,12.9v0.5H531.5L531.5,149.7z M584.8,149.7v-0.5c-5.2,0-5.9-2.8-5.9-11.1v-15.5h17.4V138
		c0,8.3-0.7,11.1-5.9,11.1v0.5h29.8v-0.5c-8.2,0-8.2-4.4-8.2-13.4v-26.4c0-9.4,0-13.4,8.2-13.4v-0.5h-29.8v0.5
		c5.2,0,5.9,2.8,5.9,11.1v14.8H579V107c0-8.3,0.7-11.1,5.9-11.1v-0.5H555v0.5c8.1,0,8.2,3.9,8.2,12.9v27.5c0,8.7-0.2,12.9-8.2,12.9
		v0.5L584.8,149.7L584.8,149.7z M655,150.3c13.6,0,19.9-5.8,19.9-19v-11.3c0-12.1,0.5-24,12.3-24v-0.5h-25.1v0.5
		c11.5,0,11.9,11.7,11.9,22.2v13.1c0,12.5-6.2,18-16.1,18c-10.8,0-11.5-11.6-11.5-21.4v-18.5c0-9.9,0.8-13.4,6.6-13.4v-0.5h-30.6
		v0.5c8.1,0,8.2,3.9,8.2,12.9v21.6C630.8,146.8,639.9,150.3,655,150.3z M724,152l21.1-54.4v38.5c0,9.9-0.2,12.7-7.5,12.7v0.5H769
		v-0.5c-8.2,0-8.2-4.3-8.2-13.4v-26.3c0-9.3,0-13.4,8.2-13.4v-0.5h-23.9l-13.4,34.5l-13.3-34.5h-27.1v0.5c9,0,10.5,3.5,10.5,12V125
		c0,11-0.2,23.9-12.3,23.9v0.5h25v-0.5c-11.8,0-11.9-12.3-11.9-22.4V98.8L724,152z M794.2,149.7v-0.5c-10.6,0-8.1-10.5-5.1-18.3
		h17.4l2.6,5.8c3,6.6,3.7,12.5-3.5,12.5v0.5h32.6v-0.5c-5.5,0-8.5-4.1-12.9-13.2L805,93l-14.9,33.5c-4.1,9.2-9.7,22.6-18.9,22.6v0.5
		L794.2,149.7L794.2,149.7z M805.9,130h-17l1.5-3.5l6.9-15.6L805.9,130z M895.6,152v-32.3c0-12,0.5-23.9,12.4-23.9v-0.5h-25.1v0.5
		c11.6,0,11.9,11.8,11.9,22.4v10l-28.7-33h-26.2v0.5c11.5,0,12.4,5.9,12.4,14.4V125c0,12-0.5,23.9-12.4,23.9v0.5H865v-0.5
		c-11.6,0-11.9-11.8-11.9-22.4v-22.7L895.6,152z M20.4,241.3c13.2,0,24.5-6.6,24.5-17.6c0-19.4-33.1-16.7-33.1-29.4
		c0-4.8,4.5-7.9,10.6-7.9c11.9,0,16.7,9.7,17.9,18.5h0.5l-1-19.1l-5.8,1.6c-2.8-0.8-8.1-1.7-12.5-1.7c-11,0-21.6,6.1-21.6,16.3
		c0,18.8,33.5,17.4,33.5,30.1c0,5.2-5.1,8.4-12.5,8.4c-14,0-19-12.8-20.2-21.9H0.3l1.2,22.5l5.7-1.6C10,240.3,15.3,241.3,20.4,241.3
		z M81.6,240.7v-0.5c-9,0-9.3-4-9.3-13.2v-9h2.4c11.1,0,27.5-2.6,27.5-15.9c0-11.3-8.9-15.8-25.7-15.8H48.2v0.5
		c8.1,0,8.3,3.9,8.3,12.9v27.5c0,8.7-0.2,12.9-8.3,12.9v0.5H81.6z M74.1,217.2h-2.1v-30.4h2.2c7.8,0,10.8,4.6,10.8,15.1
		C85.1,212.6,82.1,217.2,74.1,217.2L74.1,217.2z M115.5,240.7v-0.5c-10.6,0-8.1-10.5-5.1-18.3h17.4l2.6,5.8c3,6.6,3.7,12.5-3.5,12.5
		v0.5h32.6v-0.5c-5.5,0-8.5-4.1-12.9-13.2l-20.3-43l-14.9,33.5c-4.1,9.2-9.7,22.6-18.9,22.6v0.5L115.5,240.7L115.5,240.7z
		 M127.7,221.2h-17l1.5-3.5l6.9-15.4L127.7,221.2L127.7,221.2z M187.6,241.3c4.8,0,9.5-0.9,12.1-1.7l5.6,1.6l1.2-21.7H206
		c-0.9,9-6.1,21.2-17.9,21.2c-12.5,0-14.3-15.8-14.3-27.1s1.7-27.1,14.3-27.1c11.8,0,17,12.1,17.9,21.2h0.5l-1.2-21.7l-5.6,1.6
		c-2.7-0.8-7.4-1.7-12.1-1.7c-16.3,0-30.4,11.4-30.4,27.8S171.3,241.3,187.6,241.3L187.6,241.3z M261.9,240.7l3.6-23.2h-0.8
		c-2.4,13.8-10.2,22.5-25.3,22.5c-3.4,0-4.6-1.6-4.6-7.2v-19.7c8.4,0,14.3,4.8,14,12.4h0.5l1.3-25.1h-0.5
		c-0.5,8.3-6.8,12.2-15.3,12.2V187h7.6c13.1,0,18.2,6.3,19.5,18h0.8l-1.9-18.7h-49.8v0.5c8.2,0,8.2,4,8.2,13.4v26.4
		c0,9.1,0,13.4-8.2,13.4v0.5L261.9,240.7L261.9,240.7z M330.1,240.7v-0.5c-8.2,0-8.2-4.4-8.2-13.4V187c13.1,0,18.2,5.9,19.5,17.6
		h0.8l-1.9-18.3h-52.4l-1.9,18.3h0.8c1.3-11.7,6.5-17.6,19.5-17.6v40.3c0,8.7-0.2,12.9-8.2,12.9v0.5H330.1L330.1,240.7z
		 M375.1,241.3c14.7,0,28.9-10.1,28.9-27.8c0-16.6-13-27.8-28.9-27.8c-16,0-28.9,11.2-28.9,27.8
		C346.2,231.2,360.4,241.3,375.1,241.3L375.1,241.3z M374.8,240.7c-11.6,0-11.6-18.1-11.6-27.2c0-8.9,0-27.2,11.6-27.2
		c11.4,0,11.6,17.6,11.6,26.7v1.1C386.5,223.3,386.2,240.7,374.8,240.7L374.8,240.7z M455.1,240.7c15.1,0,24.4-5.8,24.4-15.5
		c0-12.4-17-14.4-25.1-14.5v-0.2c7.6-0.2,21.6-1.4,21.6-11.7c0-12.5-16.7-12.6-29.9-12.6h-21.7v0.5c8,0,8.2,3.9,8.2,12.9v27.5
		c0,8.7-0.2,12.9-8.2,12.9v0.5L455.1,240.7L455.1,240.7z M450.5,210.3h-2.1v-23.5h2c8.3,0,10.5,4.2,10.5,11.5
		C460.8,206.6,458.4,210.3,450.5,210.3L450.5,210.3z M453.5,240.1c-5,0-5.2-1.7-5.2-9.1v-20.1h2.6c10.3,0,12.2,5.4,12.2,14.2
		C463.1,235.3,460.2,240.1,453.5,240.1L453.5,240.1z M531.5,240.7l3.6-23.2h-0.8c-2.4,13.8-10.2,22.5-25.3,22.5
		c-3.4,0-4.6-1.6-4.6-7.2v-19.7c8.4,0,14.3,4.8,14,12.4h0.5l1.3-25.1h-0.5c-0.5,8.3-6.8,12.2-15.3,12.2V187h7.6
		c13,0,18.2,6.3,19.5,18h0.8l-1.9-18.7h-49.8v0.5c8,0,8.2,3.9,8.2,12.9v27.5c0,8.7-0.2,12.9-8.2,12.9v0.5L531.5,240.7L531.5,240.7z
		 M584.8,240.7v-0.5c-5.2,0-5.9-2.8-5.9-11.1v-15.5h17.4V229c0,8.3-0.7,11.1-5.9,11.1v0.5h29.8v-0.5c-8.2,0-8.2-4.4-8.2-13.4v-26.4
		c0-9.4,0-13.4,8.2-13.4v-0.5h-29.8v0.5c5.2,0,5.9,2.8,5.9,11.1v14.8H579V198c0-8.3,0.7-11.1,5.9-11.1v-0.5H555v0.5
		c8.1,0,8.2,3.9,8.2,12.9v27.5c0,8.7-0.2,12.9-8.2,12.9v0.5L584.8,240.7L584.8,240.7z M655,241.3c13.6,0,19.9-5.8,19.9-19.1v-11.4
		c0-12.1,0.5-24,12.3-24v-0.5h-25.1v0.5c11.5,0,11.9,11.7,11.9,22.2v13.2c0,12.5-6.2,18-16.1,18c-10.8,0-11.5-11.6-11.5-21.4v-18.5
		c0-10,0.8-13.5,6.6-13.5v-0.5h-30.6v0.5c8.1,0,8.2,3.9,8.2,12.9v21.6C630.8,237.8,639.9,241.3,655,241.3L655,241.3z M724,243
		l21.1-54.5v38.6c0,9.9-0.2,12.8-7.5,12.8v0.5H769v-0.5c-8.2,0-8.2-4.3-8.2-13.4v-26.3c0-9.3,0-13.4,8.2-13.4v-0.5h-23.9l-13.4,34.5
		l-13.3-34.5h-27.1v0.5c9,0,10.5,3.5,10.5,12.1V216c0,11-0.2,23.9-12.3,23.9v0.5h25v-0.5c-11.8,0-11.9-12.3-11.9-22.4v-27.7L724,243
		z M794.2,240.7v-0.5c-10.6,0-8.1-10.5-5.1-18.3h17.4l2.6,5.8c3,6.6,3.7,12.5-3.5,12.5v0.5h32.6v-0.5c-5.5,0-8.5-4.1-12.9-13.2
		L805,184l-14.9,33.5c-4.1,9.2-9.7,22.6-18.9,22.6v0.5L794.2,240.7L794.2,240.7z M805.9,221.2h-17l1.5-3.5l6.9-15.4L805.9,221.2z
		 M895.6,243v-32.3c0-12.1,0.5-23.9,12.4-23.9v-0.5h-25.1v0.5c11.6,0,11.9,11.8,11.9,22.4v10l-28.7-33h-26.2v0.5
		c11.5,0,12.4,5.9,12.4,14.4V216c0,12.1-0.5,23.9-12.4,23.9v0.5H865v-0.5c-11.6,0-11.9-11.8-11.9-22.4v-22.7L895.6,243z M20.4,334.3
		c13.2,0,24.5-6.6,24.5-17.6c0-19.4-33.1-16.7-33.1-29.4c0-4.8,4.5-7.9,10.6-7.9c11.9,0,16.7,9.7,17.9,18.5h0.5l-1-19.1l-5.8,1.6
		c-2.8-0.8-8.1-1.7-12.5-1.7c-11,0-21.6,6.1-21.6,16.3c0,18.8,33.5,17.3,33.5,30.1c0,5.2-5.1,8.4-12.5,8.4c-14,0-19-12.8-20.2-21.9
		H0.3l1.2,22.5l5.7-1.6C10,333.3,15.3,334.3,20.4,334.3L20.4,334.3z M81.6,333.7v-0.5c-9,0-9.3-4-9.3-13.2v-9h2.4
		c11.1,0,27.5-2.6,27.5-15.9c0-11.3-8.9-15.8-25.7-15.8H48.2v0.5c8.1,0,8.3,3.9,8.3,12.9v27.5c0,8.7-0.2,12.9-8.3,12.9v0.5
		L81.6,333.7L81.6,333.7z M74.1,310.5h-2.1v-30.7h2.2c7.8,0,10.8,4.7,10.8,15.3C85.1,305.9,82.1,310.5,74.1,310.5L74.1,310.5z
		 M115.5,333.7v-0.5c-10.6,0-8.1-10.5-5.1-18.3h17.4l2.6,5.8c3,6.6,3.7,12.5-3.5,12.5v0.5h32.6v-0.5c-5.5,0-8.5-4.1-12.9-13.2
		L126.3,277l-14.9,33.5c-4.1,9.2-9.7,22.6-18.9,22.6v0.5H115.5L115.5,333.7z M127.7,314h-17l1.5-3.5l6.9-15.6L127.7,314L127.7,314z
		 M187.6,334.3c4.8,0,9.5-0.9,12.1-1.7l5.6,1.6l1.2-21.7H206c-0.9,9-6.1,21.2-17.9,21.2c-12.5,0-14.3-15.8-14.3-27.1
		s1.7-27.1,14.3-27.1c11.8,0,17,12.1,17.9,21.2h0.5l-1.2-21.7l-5.6,1.6c-2.7-0.8-7.4-1.7-12.1-1.7c-16.3,0-30.4,11.4-30.4,27.8
		S171.3,334.3,187.6,334.3z M261.9,333.7l3.6-23.1h-0.8c-2.4,13.7-10.2,22.4-25.3,22.4c-3.4,0-4.6-1.6-4.6-7.1v-19.7
		c8.4,0,14.3,4.8,14,12.4h0.5l1.3-25.1h-0.5c-0.5,8.3-6.8,12.2-15.3,12.2V280h7.6c13.1,0,18.2,6.3,19.5,18h0.8l-1.9-18.7h-49.8v0.5
		c8.2,0,8.2,4,8.2,13.4v26.4c0,9.1,0,13.4-8.2,13.4v0.5L261.9,333.7L261.9,333.7z M330.1,333.7v-0.5c-8.2,0-8.2-4.4-8.2-13.4V280
		c13.1,0,18.2,5.9,19.5,17.6h0.8l-1.9-18.3h-52.4l-1.9,18.3h0.8c1.3-11.7,6.5-17.6,19.5-17.6v40.2c0,8.7-0.2,12.9-8.2,12.9v0.5
		L330.1,333.7L330.1,333.7z M375.1,334.3c14.7,0,28.9-10.1,28.9-27.8c0-16.6-13-27.8-28.9-27.8c-16,0-28.9,11.2-28.9,27.8
		C346.2,324.2,360.4,334.3,375.1,334.3L375.1,334.3z M374.8,333.7c-11.6,0-11.6-18.1-11.6-27.2c0-8.9,0-27.2,11.6-27.2
		c11.4,0,11.6,17.6,11.6,26.6v1.1C386.5,316.3,386.2,333.7,374.8,333.7L374.8,333.7z M455.1,333.7c15.1,0,24.4-5.8,24.4-15.5
		c0-12.4-17-14.4-25.1-14.4v-0.2c7.6-0.2,21.6-1.4,21.6-11.6c0-12.5-16.7-12.6-29.9-12.6h-21.7v0.5c8,0,8.2,3.9,8.2,12.9v27.5
		c0,8.7-0.2,12.9-8.2,12.9v0.5H455.1L455.1,333.7z M450.5,303.6h-2.1v-23.7h2c8.3,0,10.5,4.2,10.5,11.7
		C460.8,299.9,458.4,303.6,450.5,303.6L450.5,303.6z M453.5,333.1c-5,0-5.2-1.7-5.2-9v-19.9h2.6c10.3,0,12.2,5.3,12.2,14
		C463.1,328.3,460.2,333.1,453.5,333.1L453.5,333.1z M531.5,333.7l3.6-23.1h-0.8c-2.4,13.7-10.2,22.4-25.3,22.4
		c-3.4,0-4.6-1.6-4.6-7.1v-19.7c8.4,0,14.3,4.8,14,12.4h0.5l1.3-25.1h-0.5c-0.5,8.3-6.8,12.2-15.3,12.2V280h7.6
		c13,0,18.2,6.3,19.5,18h0.8l-1.9-18.7h-49.8v0.5c8,0,8.2,3.9,8.2,12.9v27.5c0,8.7-0.2,12.9-8.2,12.9v0.5L531.5,333.7L531.5,333.7z
		 M584.8,333.7v-0.5c-5.2,0-5.9-2.8-5.9-11.1v-15.5h17.4V322c0,8.3-0.7,11.1-5.9,11.1v0.5h29.8v-0.5c-8.2,0-8.2-4.4-8.2-13.4v-26.4
		c0-9.4,0-13.4,8.2-13.4v-0.5h-29.8v0.5c5.2,0,5.9,2.8,5.9,11.1v14.8H579V291c0-8.3,0.7-11.1,5.9-11.1v-0.5H555v0.5
		c8.1,0,8.2,3.9,8.2,12.9v27.5c0,8.7-0.2,12.9-8.2,12.9v0.5H584.8z M655,334.3c13.6,0,19.9-5.8,19.9-19v-11.3c0-12.1,0.5-24,12.3-24
		v-0.5h-25.1v0.5c11.5,0,11.9,11.7,11.9,22.2v13.1c0,12.5-6.2,18-16.1,18c-10.8,0-11.5-11.6-11.5-21.4v-18.5
		c0-9.9,0.8-13.4,6.6-13.4v-0.5h-30.6v0.5c8.1,0,8.2,3.9,8.2,12.9v21.6C630.8,330.8,639.9,334.3,655,334.3z M724,336l21.1-54.4v38.5
		c0,9.9-0.2,12.7-7.5,12.7v0.5H769v-0.5c-8.2,0-8.2-4.3-8.2-13.4v-26.3c0-9.3,0-13.4,8.2-13.4v-0.5h-23.9l-13.4,34.5l-13.3-34.5
		h-27.1v0.5c9,0,10.5,3.5,10.5,12V309c0,11-0.2,23.9-12.3,23.9v0.5h25v-0.5c-11.8,0-11.9-12.3-11.9-22.4v-27.6L724,336z
		 M794.2,333.7v-0.5c-10.6,0-8.1-10.5-5.1-18.3h17.4l2.6,5.8c3,6.6,3.7,12.5-3.5,12.5v0.5h32.6v-0.5c-5.5,0-8.5-4.1-12.9-13.2
		L805,277l-14.9,33.5c-4.1,9.2-9.7,22.6-18.9,22.6v0.5H794.2z M805.9,314h-17l1.5-3.5l6.9-15.6L805.9,314L805.9,314z M895.6,336
		v-32.3c0-12,0.5-23.9,12.4-23.9v-0.5h-25.1v0.5c11.6,0,11.9,11.8,11.9,22.4v10l-28.7-33h-26.2v0.5c11.5,0,12.4,5.9,12.4,14.4V309
		c0,12-0.5,23.9-12.4,23.9v0.5H865v-0.5c-11.6,0-11.9-11.8-11.9-22.4v-22.7L895.6,336z M20.4,425.3c13.2,0,24.5-6.6,24.5-17.6
		c0-19.4-33.1-16.7-33.1-29.4c0-4.8,4.5-7.9,10.6-7.9c11.9,0,16.7,9.7,17.9,18.5h0.5l-1-19.1l-5.8,1.6c-2.8-0.8-8.1-1.7-12.5-1.7
		c-11,0-21.6,6.1-21.6,16.3c0,18.8,33.5,17.3,33.5,30.1c0,5.2-5.1,8.4-12.5,8.4c-14,0-19-12.8-20.2-21.9H0.3l1.2,22.5l5.7-1.6
		C10,424.3,15.3,425.3,20.4,425.3L20.4,425.3z M81.6,424.7v-0.5c-9,0-9.3-4-9.3-13.2v-9h2.4c11.1,0,27.5-2.6,27.5-15.9
		c0-11.3-8.9-15.8-25.7-15.8H48.2v0.5c8.1,0,8.3,3.9,8.3,12.9v27.5c0,8.7-0.2,12.9-8.3,12.9v0.5L81.6,424.7L81.6,424.7z M74.1,401.5
		h-2.1v-30.7h2.2c7.8,0,10.8,4.7,10.8,15.3C85.1,396.9,82.1,401.5,74.1,401.5L74.1,401.5z M115.5,424.7v-0.5
		c-10.6,0-8.1-10.5-5.1-18.3h17.4l2.6,5.8c3,6.6,3.7,12.5-3.5,12.5v0.5h32.6v-0.5c-5.5,0-8.5-4.1-12.9-13.2L126.3,368l-14.9,33.5
		c-4.1,9.2-9.7,22.6-18.9,22.6v0.5H115.5L115.5,424.7z M127.7,405h-17l1.5-3.5l6.9-15.6L127.7,405L127.7,405z M187.6,425.3
		c4.8,0,9.5-0.9,12.1-1.7l5.6,1.6l1.2-21.7H206c-0.9,9-6.1,21.2-17.9,21.2c-12.5,0-14.3-15.8-14.3-27.1s1.7-27.1,14.3-27.1
		c11.8,0,17,12.1,17.9,21.2h0.5l-1.2-21.7l-5.6,1.6c-2.7-0.8-7.4-1.7-12.1-1.7c-16.3,0-30.4,11.4-30.4,27.8S171.3,425.3,187.6,425.3
		z M261.9,424.7l3.6-23.1h-0.8c-2.4,13.7-10.2,22.4-25.3,22.4c-3.4,0-4.6-1.6-4.6-7.1v-19.7c8.4,0,14.3,4.8,14,12.4h0.5l1.3-25.1
		h-0.5c-0.5,8.3-6.8,12.2-15.3,12.2V371h7.6c13.1,0,18.2,6.3,19.5,18h0.8l-1.9-18.7h-49.8v0.5c8.2,0,8.2,4,8.2,13.4v26.4
		c0,9.1,0,13.4-8.2,13.4v0.5L261.9,424.7L261.9,424.7z M330.1,424.7v-0.5c-8.2,0-8.2-4.4-8.2-13.4V371c13.1,0,18.2,5.9,19.5,17.6
		h0.8l-1.9-18.3h-52.4l-1.9,18.3h0.8c1.3-11.7,6.5-17.6,19.5-17.6v40.2c0,8.7-0.2,12.9-8.2,12.9v0.5L330.1,424.7L330.1,424.7z
		 M375.1,425.3c14.7,0,28.9-10.1,28.9-27.8c0-16.6-13-27.8-28.9-27.8c-16,0-28.9,11.2-28.9,27.8
		C346.2,415.2,360.4,425.3,375.1,425.3L375.1,425.3z M374.8,424.7c-11.6,0-11.6-18.1-11.6-27.2c0-8.9,0-27.2,11.6-27.2
		c11.4,0,11.6,17.6,11.6,26.6v1.1C386.5,407.3,386.2,424.7,374.8,424.7L374.8,424.7z M455.1,424.7c15.1,0,24.4-5.8,24.4-15.5
		c0-12.4-17-14.4-25.1-14.4v-0.2c7.6-0.2,21.6-1.4,21.6-11.6c0-12.5-16.7-12.6-29.9-12.6h-21.7v0.5c8,0,8.2,3.9,8.2,12.9v27.5
		c0,8.7-0.2,12.9-8.2,12.9v0.5H455.1L455.1,424.7z M450.5,394.6h-2.1v-23.7h2c8.3,0,10.5,4.2,10.5,11.7
		C460.8,390.9,458.4,394.6,450.5,394.6L450.5,394.6z M453.5,424.1c-5,0-5.2-1.7-5.2-9v-19.9h2.6c10.3,0,12.2,5.3,12.2,14
		C463.1,419.3,460.2,424.1,453.5,424.1L453.5,424.1z M531.5,424.7l3.6-23.1h-0.8c-2.4,13.7-10.2,22.4-25.3,22.4
		c-3.4,0-4.6-1.6-4.6-7.1v-19.7c8.4,0,14.3,4.8,14,12.4h0.5l1.3-25.1h-0.5c-0.5,8.3-6.8,12.2-15.3,12.2V371h7.6
		c13,0,18.2,6.3,19.5,18h0.8l-1.9-18.7h-49.8v0.5c8,0,8.2,3.9,8.2,12.9v27.5c0,8.7-0.2,12.9-8.2,12.9v0.5L531.5,424.7L531.5,424.7z
		 M584.8,424.7v-0.5c-5.2,0-5.9-2.8-5.9-11.1v-15.5h17.4V413c0,8.3-0.7,11.1-5.9,11.1v0.5h29.8v-0.5c-8.2,0-8.2-4.4-8.2-13.4v-26.4
		c0-9.4,0-13.4,8.2-13.4v-0.5h-29.8v0.5c5.2,0,5.9,2.8,5.9,11.1v14.8H579V382c0-8.3,0.7-11.1,5.9-11.1v-0.5H555v0.5
		c8.1,0,8.2,3.9,8.2,12.9v27.5c0,8.7-0.2,12.9-8.2,12.9v0.5H584.8z M655,425.3c13.6,0,19.9-5.8,19.9-19v-11.3c0-12.1,0.5-24,12.3-24
		v-0.5h-25.1v0.5c11.5,0,11.9,11.7,11.9,22.2v13.1c0,12.5-6.2,18-16.1,18c-10.8,0-11.5-11.6-11.5-21.4v-18.5
		c0-9.9,0.8-13.4,6.6-13.4v-0.5h-30.6v0.5c8.1,0,8.2,3.9,8.2,12.9v21.6C630.8,421.8,639.9,425.3,655,425.3z M724,427l21.1-54.4v38.5
		c0,9.9-0.2,12.7-7.5,12.7v0.5H769v-0.5c-8.2,0-8.2-4.3-8.2-13.4v-26.3c0-9.3,0-13.4,8.2-13.4v-0.5h-23.9l-13.4,34.5l-13.3-34.5
		h-27.1v0.5c9,0,10.5,3.5,10.5,12V400c0,11-0.2,23.9-12.3,23.9v0.5h25v-0.5c-11.8,0-11.9-12.3-11.9-22.4v-27.6L724,427z
		 M794.2,424.7v-0.5c-10.6,0-8.1-10.5-5.1-18.3h17.4l2.6,5.8c3,6.6,3.7,12.5-3.5,12.5v0.5h32.6v-0.5c-5.5,0-8.5-4.1-12.9-13.2
		L805,368l-14.9,33.5c-4.1,9.2-9.7,22.6-18.9,22.6v0.5H794.2z M805.9,405h-17l1.5-3.5l6.9-15.6L805.9,405L805.9,405z M895.6,427
		v-32.3c0-12,0.5-23.9,12.4-23.9v-0.5h-25.1v0.5c11.6,0,11.9,11.8,11.9,22.4v10l-28.7-33h-26.2v0.5c11.5,0,12.4,5.9,12.4,14.4V400
		c0,12-0.5,23.9-12.4,23.9v0.5H865v-0.5c-11.6,0-11.9-11.8-11.9-22.4v-22.7L895.6,427z M20.4,517.3c13.2,0,24.5-6.6,24.5-17.6
		c0-19.4-33.1-16.7-33.1-29.4c0-4.8,4.5-7.9,10.6-7.9c11.9,0,16.7,9.7,17.9,18.5h0.5l-1-19.1l-5.8,1.6c-2.8-0.8-8.1-1.7-12.5-1.7
		c-11,0-21.6,6.1-21.6,16.3c0,18.8,33.5,17.3,33.5,30.1c0,5.2-5.1,8.4-12.5,8.4c-14,0-19-12.8-20.2-21.9H0.3l1.2,22.5l5.7-1.6
		C10,516.3,15.3,517.3,20.4,517.3L20.4,517.3z M81.6,516.7v-0.5c-9,0-9.3-4-9.3-13.2v-9h2.4c11.1,0,27.5-2.6,27.5-15.9
		c0-11.3-8.9-15.8-25.7-15.8H48.2v0.5c8.1,0,8.3,3.9,8.3,12.9v27.5c0,8.7-0.2,12.9-8.3,12.9v0.5H81.6z M74.1,493.5h-2.1v-30.7h2.2
		c7.8,0,10.8,4.7,10.8,15.3C85.1,488.9,82.1,493.5,74.1,493.5L74.1,493.5z M115.5,516.7v-0.5c-10.6,0-8.1-10.5-5.1-18.3h17.4
		l2.6,5.8c3,6.6,3.7,12.5-3.5,12.5v0.5h32.6v-0.5c-5.5,0-8.5-4.1-12.9-13.2L126.3,460l-14.9,33.5c-4.1,9.2-9.7,22.6-18.9,22.6v0.5
		L115.5,516.7L115.5,516.7z M127.7,497h-17l1.5-3.5l6.9-15.6L127.7,497L127.7,497z M187.6,517.3c4.8,0,9.5-0.9,12.1-1.7l5.6,1.6
		l1.2-21.7H206c-0.9,9-6.1,21.2-17.9,21.2c-12.5,0-14.3-15.8-14.3-27.1s1.7-27.1,14.3-27.1c11.8,0,17,12.1,17.9,21.2h0.5l-1.2-21.7
		l-5.6,1.6c-2.7-0.8-7.4-1.7-12.1-1.7c-16.3,0-30.4,11.4-30.4,27.8S171.3,517.3,187.6,517.3z M261.9,516.7l3.6-23.1h-0.8
		c-2.4,13.7-10.2,22.4-25.3,22.4c-3.4,0-4.6-1.6-4.6-7.1v-19.7c8.4,0,14.3,4.8,14,12.4h0.5l1.3-25.1h-0.5
		c-0.5,8.3-6.8,12.2-15.3,12.2V463h7.6c13.1,0,18.2,6.3,19.5,18h0.8l-1.9-18.7h-49.8v0.5c8.2,0,8.2,4,8.2,13.4v26.4
		c0,9.1,0,13.4-8.2,13.4v0.5L261.9,516.7L261.9,516.7z M330.1,516.7v-0.5c-8.2,0-8.2-4.4-8.2-13.4V463c13.1,0,18.2,5.9,19.5,17.6
		h0.8l-1.9-18.3h-52.4l-1.9,18.3h0.8c1.3-11.7,6.5-17.6,19.5-17.6v40.2c0,8.7-0.2,12.9-8.2,12.9v0.5H330.1L330.1,516.7z
		 M375.1,517.3c14.7,0,28.9-10.1,28.9-27.8c0-16.6-13-27.8-28.9-27.8c-16,0-28.9,11.2-28.9,27.8
		C346.2,507.2,360.4,517.3,375.1,517.3L375.1,517.3z M374.8,516.7c-11.6,0-11.6-18.1-11.6-27.2c0-8.9,0-27.2,11.6-27.2
		c11.4,0,11.6,17.6,11.6,26.6v1.1C386.5,499.3,386.2,516.7,374.8,516.7L374.8,516.7z M455.1,516.7c15.1,0,24.4-5.8,24.4-15.5
		c0-12.4-17-14.4-25.1-14.4v-0.2c7.6-0.2,21.6-1.4,21.6-11.6c0-12.5-16.7-12.6-29.9-12.6h-21.7v0.5c8,0,8.2,3.9,8.2,12.9v27.5
		c0,8.7-0.2,12.9-8.2,12.9v0.5H455.1L455.1,516.7z M450.5,486.6h-2.1v-23.7h2c8.3,0,10.5,4.2,10.5,11.7
		C460.8,482.9,458.4,486.6,450.5,486.6L450.5,486.6z M453.5,516.1c-5,0-5.2-1.7-5.2-9v-19.9h2.6c10.3,0,12.2,5.3,12.2,14
		C463.1,511.3,460.2,516.1,453.5,516.1L453.5,516.1z M531.5,516.7l3.6-23.1h-0.8c-2.4,13.7-10.2,22.4-25.3,22.4
		c-3.4,0-4.6-1.6-4.6-7.1v-19.7c8.4,0,14.3,4.8,14,12.4h0.5l1.3-25.1h-0.5c-0.5,8.3-6.8,12.2-15.3,12.2V463h7.6
		c13,0,18.2,6.3,19.5,18h0.8l-1.9-18.7h-49.8v0.5c8,0,8.2,3.9,8.2,12.9v27.5c0,8.7-0.2,12.9-8.2,12.9v0.5L531.5,516.7L531.5,516.7z
		 M584.8,516.7v-0.5c-5.2,0-5.9-2.8-5.9-11.1v-15.5h17.4V505c0,8.3-0.7,11.1-5.9,11.1v0.5h29.8v-0.5c-8.2,0-8.2-4.4-8.2-13.4v-26.4
		c0-9.4,0-13.4,8.2-13.4v-0.5h-29.8v0.5c5.2,0,5.9,2.8,5.9,11.1v14.8H579V474c0-8.3,0.7-11.1,5.9-11.1v-0.5H555v0.5
		c8.1,0,8.2,3.9,8.2,12.9v27.5c0,8.7-0.2,12.9-8.2,12.9v0.5H584.8z M655,517.3c13.6,0,19.9-5.8,19.9-19v-11.3c0-12.1,0.5-24,12.3-24
		v-0.5h-25.1v0.5c11.5,0,11.9,11.7,11.9,22.2v13.1c0,12.5-6.2,18-16.1,18c-10.8,0-11.5-11.6-11.5-21.4v-18.5
		c0-9.9,0.8-13.4,6.6-13.4v-0.5h-30.6v0.5c8.1,0,8.2,3.9,8.2,12.9v21.6C630.8,513.8,639.9,517.3,655,517.3z M724,519l21.1-54.4v38.5
		c0,9.9-0.2,12.7-7.5,12.7v0.5H769v-0.5c-8.2,0-8.2-4.3-8.2-13.4v-26.3c0-9.3,0-13.4,8.2-13.4v-0.5h-23.9l-13.4,34.5l-13.3-34.5
		h-27.1v0.5c9,0,10.5,3.5,10.5,12V492c0,11-0.2,23.9-12.3,23.9v0.5h25v-0.5c-11.8,0-11.9-12.3-11.9-22.4v-27.6L724,519z
		 M794.2,516.7v-0.5c-10.6,0-8.1-10.5-5.1-18.3h17.4l2.6,5.8c3,6.6,3.7,12.5-3.5,12.5v0.5h32.6v-0.5c-5.5,0-8.5-4.1-12.9-13.2
		L805,460l-14.9,33.5c-4.1,9.2-9.7,22.6-18.9,22.6v0.5H794.2z M805.9,497h-17l1.5-3.5l6.9-15.6L805.9,497L805.9,497z M895.6,519
		v-32.3c0-12,0.5-23.9,12.4-23.9v-0.5h-25.1v0.5c11.6,0,11.9,11.8,11.9,22.4v10l-28.7-33h-26.2v0.5c11.5,0,12.4,5.9,12.4,14.4V492
		c0,12-0.5,23.9-12.4,23.9v0.5H865v-0.5c-11.6,0-11.9-11.8-11.9-22.4v-22.7L895.6,519z M20.4,610.3c13.2,0,24.5-6.6,24.5-17.6
		c0-19.4-33.1-16.7-33.1-29.4c0-4.8,4.5-7.9,10.6-7.9c11.9,0,16.7,9.7,17.9,18.5h0.5l-1-19.1l-5.8,1.6c-2.8-0.8-8.1-1.7-12.5-1.7
		c-11,0-21.6,6.1-21.6,16.3c0,18.8,33.5,17.4,33.5,30.1c0,5.2-5.1,8.4-12.5,8.4c-14,0-19-12.8-20.2-21.9H0.3l1.2,22.5l5.7-1.6
		C10,609.3,15.3,610.3,20.4,610.3L20.4,610.3z M81.6,609.7v-0.5c-9,0-9.3-4-9.3-13.2v-9h2.4c11.1,0,27.5-2.6,27.5-15.9
		c0-11.3-8.9-15.8-25.7-15.8H48.2v0.5c8.1,0,8.3,3.9,8.3,12.9v27.5c0,8.7-0.2,12.9-8.3,12.9v0.5H81.6z M74.1,586.2h-2.1v-30.4h2.2
		c7.8,0,10.8,4.6,10.8,15.1C85.1,581.6,82.1,586.2,74.1,586.2L74.1,586.2z M115.5,609.7v-0.5c-10.6,0-8.1-10.5-5.1-18.3h17.4
		l2.6,5.8c3,6.6,3.7,12.5-3.5,12.5v0.5h32.6v-0.5c-5.5,0-8.5-4.1-12.9-13.2l-20.3-43l-14.9,33.5c-4.1,9.2-9.7,22.6-18.9,22.6v0.5
		L115.5,609.7L115.5,609.7z M127.7,590.2h-17l1.5-3.5l6.9-15.4C119.1,571.3,127.7,590.2,127.7,590.2z M187.6,610.3
		c4.8,0,9.5-0.9,12.1-1.7l5.6,1.6l1.2-21.7H206c-0.9,9-6.1,21.2-17.9,21.2c-12.5,0-14.3-15.8-14.3-27.1s1.7-27.1,14.3-27.1
		c11.8,0,17,12.1,17.9,21.2h0.5l-1.2-21.7l-5.6,1.6c-2.7-0.8-7.4-1.7-12.1-1.7c-16.3,0-30.4,11.4-30.4,27.8S171.3,610.3,187.6,610.3
		L187.6,610.3z M261.9,609.7l3.6-23.2h-0.8c-2.4,13.8-10.2,22.5-25.3,22.5c-3.4,0-4.6-1.6-4.6-7.2v-19.7c8.4,0,14.3,4.8,14,12.4h0.5
		l1.3-25.1h-0.5c-0.5,8.3-6.8,12.2-15.3,12.2V556h7.6c13.1,0,18.2,6.3,19.5,18h0.8l-1.9-18.7h-49.8v0.5c8.2,0,8.2,4,8.2,13.5v26.4
		c0,9.1,0,13.5-8.2,13.5v0.5L261.9,609.7L261.9,609.7z M330.1,609.7v-0.5c-8.2,0-8.2-4.4-8.2-13.5V556c13.1,0,18.2,5.9,19.5,17.6
		h0.8l-1.9-18.3h-52.4l-1.9,18.3h0.8c1.3-11.7,6.5-17.6,19.5-17.6v40.3c0,8.7-0.2,12.9-8.2,12.9v0.5H330.1L330.1,609.7z
		 M375.1,610.3c14.7,0,28.9-10.1,28.9-27.8c0-16.6-13-27.8-28.9-27.8c-16,0-28.9,11.2-28.9,27.8
		C346.2,600.2,360.4,610.3,375.1,610.3L375.1,610.3z M374.8,609.7c-11.6,0-11.6-18.1-11.6-27.2c0-8.9,0-27.2,11.6-27.2
		c11.4,0,11.6,17.6,11.6,26.7v1.1C386.5,592.3,386.2,609.7,374.8,609.7L374.8,609.7z M455.1,609.7c15.1,0,24.4-5.8,24.4-15.5
		c0-12.4-17-14.4-25.1-14.5v-0.2c7.6-0.2,21.6-1.4,21.6-11.7c0-12.5-16.7-12.6-29.9-12.6h-21.7v0.5c8,0,8.2,3.9,8.2,12.9v27.5
		c0,8.7-0.2,12.9-8.2,12.9v0.5H455.1L455.1,609.7z M450.5,579.3h-2.1v-23.5h2c8.3,0,10.5,4.2,10.5,11.5
		C460.8,575.6,458.4,579.4,450.5,579.3L450.5,579.3z M453.5,609.1c-5,0-5.2-1.7-5.2-9.1v-20.1h2.6c10.3,0,12.2,5.4,12.2,14.2
		C463.1,604.3,460.2,609.1,453.5,609.1L453.5,609.1z M531.5,609.7l3.6-23.2h-0.8c-2.4,13.8-10.2,22.5-25.3,22.5
		c-3.4,0-4.6-1.6-4.6-7.2v-19.7c8.4,0,14.3,4.8,14,12.4h0.5l1.3-25.1h-0.5c-0.5,8.3-6.8,12.2-15.3,12.2V556h7.6
		c13,0,18.2,6.3,19.5,18h0.8l-1.9-18.7h-49.8v0.5c8,0,8.2,3.9,8.2,12.9v27.5c0,8.7-0.2,12.9-8.2,12.9v0.5L531.5,609.7L531.5,609.7z
		 M584.8,609.7v-0.5c-5.2,0-5.9-2.8-5.9-11.1v-15.5h17.4V598c0,8.3-0.7,11.1-5.9,11.1v0.5h29.8v-0.5c-8.2,0-8.2-4.4-8.2-13.5v-26.4
		c0-9.4,0-13.5,8.2-13.5v-0.5h-29.8v0.5c5.2,0,5.9,2.8,5.9,11.1v14.8H579V567c0-8.3,0.7-11.1,5.9-11.1v-0.5H555v0.5
		c8.1,0,8.2,3.9,8.2,12.9v27.5c0,8.7-0.2,12.9-8.2,12.9v0.5H584.8z M655,610.3c13.6,0,19.9-5.8,19.9-19.1v-11.4
		c0-12.1,0.5-24,12.3-24v-0.5h-25.1v0.5c11.5,0,11.9,11.7,11.9,22.2v13.2c0,12.5-6.2,18-16.1,18c-10.8,0-11.5-11.6-11.5-21.4v-18.5
		c0-10,0.8-13.5,6.6-13.5v-0.5h-30.6v0.5c8.1,0,8.2,3.9,8.2,12.9v21.6C630.8,606.8,639.9,610.3,655,610.3z M724,612l21.1-54.5v38.6
		c0,9.9-0.2,12.8-7.5,12.8v0.5H769v-0.5c-8.2,0-8.2-4.3-8.2-13.4v-26.3c0-9.3,0-13.4,8.2-13.4v-0.5h-23.9l-13.4,34.5l-13.3-34.5
		h-27.1v0.5c9,0,10.5,3.5,10.5,12.1V585c0,11-0.2,23.9-12.3,23.9v0.5h25v-0.5c-11.8,0-11.9-12.3-11.9-22.4v-27.7L724,612z
		 M794.2,609.7v-0.5c-10.6,0-8.1-10.5-5.1-18.3h17.4l2.6,5.8c3,6.6,3.7,12.5-3.5,12.5v0.5h32.6v-0.5c-5.5,0-8.5-4.1-12.9-13.2
		L805,553l-14.9,33.5c-4.1,9.2-9.7,22.6-18.9,22.6v0.5L794.2,609.7L794.2,609.7z M805.9,590.2h-17l1.5-3.5l6.9-15.4L805.9,590.2z
		 M895.6,612v-32.3c0-12.1,0.5-23.9,12.4-23.9v-0.5h-25.1v0.5c11.6,0,11.9,11.8,11.9,22.4v10l-28.7-33h-26.2v0.5
		c11.5,0,12.4,5.9,12.4,14.4V585c0,12.1-0.5,23.9-12.4,23.9v0.5H865v-0.5c-11.6,0-11.9-11.8-11.9-22.4v-22.7L895.6,612z M20.4,701.3
		c13.2,0,24.5-6.6,24.5-17.6c0-19.4-33.1-16.7-33.1-29.4c0-4.8,4.5-7.9,10.6-7.9c11.9,0,16.7,9.7,17.9,18.5h0.5l-1-19.1l-5.8,1.6
		c-2.8-0.8-8.1-1.7-12.5-1.7c-11,0-21.6,6.1-21.6,16.3c0,18.8,33.5,17.3,33.5,30.1c0,5.2-5.1,8.4-12.5,8.4c-14,0-19-12.8-20.2-21.9
		H0.3l1.2,22.5l5.7-1.6C10,700.3,15.3,701.3,20.4,701.3L20.4,701.3z M81.6,700.7v-0.5c-9,0-9.3-4-9.3-13.2v-9h2.4
		c11.1,0,27.5-2.6,27.5-15.9c0-11.3-8.9-15.8-25.7-15.8H48.2v0.5c8.1,0,8.3,3.9,8.3,12.9v27.5c0,8.7-0.2,12.9-8.3,12.9v0.5
		L81.6,700.7L81.6,700.7z M74.1,677.5h-2.1v-30.7h2.2c7.8,0,10.8,4.7,10.8,15.3C85.1,672.9,82.1,677.5,74.1,677.5L74.1,677.5z
		 M115.5,700.7v-0.5c-10.6,0-8.1-10.5-5.1-18.3h17.4l2.6,5.8c3,6.6,3.7,12.5-3.5,12.5v0.5h32.6v-0.5c-5.5,0-8.5-4.1-12.9-13.2
		L126.3,644l-14.9,33.5c-4.1,9.2-9.7,22.6-18.9,22.6v0.5L115.5,700.7L115.5,700.7z M127.7,681h-17l1.5-3.5l6.9-15.6
		C119.1,661.9,127.7,681,127.7,681z M187.6,701.3c4.8,0,9.5-0.9,12.1-1.7l5.6,1.6l1.2-21.7H206c-0.9,9-6.1,21.2-17.9,21.2
		c-12.5,0-14.3-15.8-14.3-27.1s1.7-27.1,14.3-27.1c11.8,0,17,12.1,17.9,21.2h0.5l-1.2-21.7l-5.6,1.6c-2.7-0.8-7.4-1.7-12.1-1.7
		c-16.3,0-30.4,11.4-30.4,27.8S171.3,701.3,187.6,701.3L187.6,701.3z M261.9,700.7l3.6-23.1h-0.8c-2.4,13.7-10.2,22.4-25.3,22.4
		c-3.4,0-4.6-1.6-4.6-7.1v-19.7c8.4,0,14.3,4.8,14,12.3h0.5l1.3-25.1h-0.5c-0.5,8.3-6.8,12.2-15.3,12.2V647h7.6
		c13.1,0,18.2,6.3,19.5,18h0.8l-1.9-18.7h-49.8v0.5c8.2,0,8.2,4,8.2,13.4v26.4c0,9.1,0,13.4-8.2,13.4v0.5L261.9,700.7L261.9,700.7z
		 M330.1,700.7v-0.5c-8.2,0-8.2-4.3-8.2-13.4V647c13.1,0,18.2,5.9,19.5,17.6h0.8l-1.9-18.3h-52.4l-1.9,18.3h0.8
		c1.3-11.7,6.5-17.6,19.5-17.6v40.2c0,8.7-0.2,12.9-8.2,12.9v0.5H330.1L330.1,700.7z M375.1,701.3c14.7,0,28.9-10.1,28.9-27.8
		c0-16.6-13-27.8-28.9-27.8c-16,0-28.9,11.2-28.9,27.8C346.2,691.2,360.4,701.3,375.1,701.3L375.1,701.3z M374.8,700.7
		c-11.6,0-11.6-18.1-11.6-27.2c0-8.9,0-27.2,11.6-27.2c11.4,0,11.6,17.6,11.6,26.6v1.1C386.5,683.3,386.2,700.7,374.8,700.7
		L374.8,700.7z M455.1,700.7c15.1,0,24.4-5.8,24.4-15.5c0-12.3-17-14.4-25.1-14.4v-0.2c7.6-0.2,21.6-1.4,21.6-11.7
		c0-12.5-16.7-12.6-29.9-12.6h-21.7v0.5c8,0,8.2,3.9,8.2,12.9v27.5c0,8.7-0.2,12.9-8.2,12.9v0.5L455.1,700.7L455.1,700.7z
		 M450.5,670.6h-2.1v-23.7h2c8.3,0,10.5,4.2,10.5,11.7C460.8,666.9,458.4,670.6,450.5,670.6z M453.5,700.1c-5,0-5.2-1.7-5.2-9v-19.9
		h2.6c10.3,0,12.2,5.3,12.2,14C463.1,695.3,460.2,700.1,453.5,700.1L453.5,700.1z M531.5,700.7l3.6-23.1h-0.8
		c-2.4,13.7-10.2,22.4-25.3,22.4c-3.4,0-4.6-1.6-4.6-7.1v-19.7c8.4,0,14.3,4.8,14,12.3h0.5l1.3-25.1h-0.5
		c-0.5,8.3-6.8,12.2-15.3,12.2V647h7.6c13,0,18.2,6.3,19.5,18h0.8l-1.9-18.7h-49.8v0.5c8,0,8.2,3.9,8.2,12.9v27.5
		c0,8.7-0.2,12.9-8.2,12.9v0.5L531.5,700.7L531.5,700.7z M584.8,700.7v-0.5c-5.2,0-5.9-2.8-5.9-11.1v-15.5h17.4V689
		c0,8.3-0.7,11.1-5.9,11.1v0.5h29.8v-0.5c-8.2,0-8.2-4.3-8.2-13.4v-26.4c0-9.4,0-13.4,8.2-13.4v-0.5h-29.8v0.5
		c5.2,0,5.9,2.8,5.9,11.1v14.8H579V658c0-8.3,0.7-11.1,5.9-11.1v-0.5H555v0.5c8.1,0,8.2,3.9,8.2,12.9v27.5c0,8.7-0.2,12.9-8.2,12.9
		v0.5H584.8z M655,701.3c13.6,0,19.9-5.8,19.9-19v-11.3c0-12.1,0.5-24,12.3-24v-0.5h-25.1v0.5c11.5,0,11.9,11.7,11.9,22.2v13.1
		c0,12.5-6.2,18-16.1,18c-10.8,0-11.5-11.6-11.5-21.4v-18.5c0-9.9,0.8-13.4,6.6-13.4v-0.5h-30.6v0.5c8.1,0,8.2,3.9,8.2,12.9v21.6
		C630.8,697.8,639.9,701.3,655,701.3z M724,703l21.1-54.4v38.5c0,9.9-0.2,12.7-7.5,12.7v0.5H769v-0.5c-8.2,0-8.2-4.3-8.2-13.4v-26.3
		c0-9.3,0-13.4,8.2-13.4v-0.5h-23.9l-13.4,34.5l-13.3-34.5h-27.1v0.5c9,0,10.5,3.5,10.5,12V676c0,11-0.2,23.9-12.3,23.9v0.5h25v-0.5
		c-11.8,0-11.9-12.3-11.9-22.4v-27.6L724,703z M794.2,700.7v-0.5c-10.6,0-8.1-10.5-5.1-18.3h17.4l2.6,5.8c3,6.6,3.7,12.5-3.5,12.5
		v0.5h32.6v-0.5c-5.5,0-8.5-4.1-12.9-13.2L805,644l-14.9,33.5c-4.1,9.2-9.7,22.6-18.9,22.6v0.5H794.2z M805.9,681h-17l1.5-3.5
		l6.9-15.6L805.9,681z M895.6,703v-32.3c0-12,0.5-23.9,12.4-23.9v-0.5h-25.1v0.5c11.6,0,11.9,11.8,11.9,22.4v10l-28.7-33h-26.2v0.5
		c11.5,0,12.4,5.9,12.4,14.4V676c0,12-0.5,23.9-12.4,23.9v0.5H865v-0.5c-11.6,0-11.9-11.8-11.9-22.4v-22.7L895.6,703z M20.4,794.3
		c13.2,0,24.5-6.6,24.5-17.6c0-19.4-33.1-16.7-33.1-29.4c0-4.8,4.5-7.9,10.6-7.9c11.9,0,16.7,9.7,17.9,18.5h0.5l-1-19.1l-5.8,1.6
		c-2.8-0.8-8.1-1.7-12.5-1.7c-11,0-21.6,6.1-21.6,16.3c0,18.8,33.5,17.3,33.5,30.1c0,5.2-5.1,8.4-12.5,8.4c-14,0-19-12.8-20.2-21.9
		H0.3l1.2,22.5l5.7-1.6C10,793.3,15.3,794.3,20.4,794.3L20.4,794.3z M81.6,793.7v-0.5c-9,0-9.3-4-9.3-13.2v-9h2.4
		c11.1,0,27.5-2.6,27.5-15.9c0-11.3-8.9-15.8-25.7-15.8H48.2v0.5c8.1,0,8.3,3.9,8.3,12.9v27.5c0,8.7-0.2,12.9-8.3,12.9v0.5
		L81.6,793.7L81.6,793.7z M74.1,770.5h-2.1v-30.7h2.2c7.8,0,10.8,4.7,10.8,15.3C85.1,765.9,82.1,770.5,74.1,770.5L74.1,770.5z
		 M115.5,793.7v-0.5c-10.6,0-8.1-10.5-5.1-18.3h17.4l2.6,5.8c3,6.6,3.7,12.5-3.5,12.5v0.5h32.6v-0.5c-5.5,0-8.5-4.1-12.9-13.2
		L126.3,737l-14.9,33.5c-4.1,9.2-9.7,22.6-18.9,22.6v0.5L115.5,793.7L115.5,793.7z M127.7,774h-17l1.5-3.5l6.9-15.6
		C119.1,754.9,127.7,774,127.7,774z M187.6,794.3c4.8,0,9.5-0.9,12.1-1.7l5.6,1.6l1.2-21.7H206c-0.9,9-6.1,21.2-17.9,21.2
		c-12.5,0-14.3-15.8-14.3-27.1s1.7-27.1,14.3-27.1c11.8,0,17,12.1,17.9,21.2h0.5l-1.2-21.7l-5.6,1.6c-2.7-0.8-7.4-1.7-12.1-1.7
		c-16.3,0-30.4,11.4-30.4,27.8S171.3,794.3,187.6,794.3L187.6,794.3z M261.9,793.7l3.6-23.1h-0.8c-2.4,13.7-10.2,22.4-25.3,22.4
		c-3.4,0-4.6-1.6-4.6-7.1v-19.7c8.4,0,14.3,4.8,14,12.3h0.5l1.3-25.1h-0.5c-0.5,8.3-6.8,12.2-15.3,12.2V740h7.6
		c13.1,0,18.2,6.3,19.5,18h0.8l-1.9-18.7h-49.8v0.5c8.2,0,8.2,4,8.2,13.4v26.4c0,9.1,0,13.4-8.2,13.4v0.5L261.9,793.7L261.9,793.7z
		 M330.1,793.7v-0.5c-8.2,0-8.2-4.3-8.2-13.4V740c13.1,0,18.2,5.9,19.5,17.6h0.8l-1.9-18.3h-52.4l-1.9,18.3h0.8
		c1.3-11.7,6.5-17.6,19.5-17.6v40.2c0,8.7-0.2,12.9-8.2,12.9v0.5H330.1L330.1,793.7z M375.1,794.3c14.7,0,28.9-10.1,28.9-27.8
		c0-16.6-13-27.8-28.9-27.8c-16,0-28.9,11.2-28.9,27.8C346.2,784.2,360.4,794.3,375.1,794.3L375.1,794.3z M374.8,793.7
		c-11.6,0-11.6-18.1-11.6-27.2c0-8.9,0-27.2,11.6-27.2c11.4,0,11.6,17.6,11.6,26.6v1.1C386.5,776.3,386.2,793.7,374.8,793.7
		L374.8,793.7z M455.1,793.7c15.1,0,24.4-5.8,24.4-15.5c0-12.3-17-14.4-25.1-14.4v-0.2c7.6-0.2,21.6-1.4,21.6-11.7
		c0-12.5-16.7-12.6-29.9-12.6h-21.7v0.5c8,0,8.2,3.9,8.2,12.9v27.5c0,8.7-0.2,12.9-8.2,12.9v0.5L455.1,793.7L455.1,793.7z
		 M450.5,763.6h-2.1v-23.7h2c8.3,0,10.5,4.2,10.5,11.7C460.8,759.9,458.4,763.6,450.5,763.6z M453.5,793.1c-5,0-5.2-1.7-5.2-9v-19.9
		h2.6c10.3,0,12.2,5.3,12.2,14C463.1,788.3,460.2,793.1,453.5,793.1L453.5,793.1z M531.5,793.7l3.6-23.1h-0.8
		c-2.4,13.7-10.2,22.4-25.3,22.4c-3.4,0-4.6-1.6-4.6-7.1v-19.7c8.4,0,14.3,4.8,14,12.3h0.5l1.3-25.1h-0.5
		c-0.5,8.3-6.8,12.2-15.3,12.2V740h7.6c13,0,18.2,6.3,19.5,18h0.8l-1.9-18.7h-49.8v0.5c8,0,8.2,3.9,8.2,12.9v27.5
		c0,8.7-0.2,12.9-8.2,12.9v0.5L531.5,793.7L531.5,793.7z M584.8,793.7v-0.5c-5.2,0-5.9-2.8-5.9-11.1v-15.5h17.4V782
		c0,8.3-0.7,11.1-5.9,11.1v0.5h29.8v-0.5c-8.2,0-8.2-4.3-8.2-13.4v-26.4c0-9.4,0-13.4,8.2-13.4v-0.5h-29.8v0.5
		c5.2,0,5.9,2.8,5.9,11.1v14.8H579V751c0-8.3,0.7-11.1,5.9-11.1v-0.5H555v0.5c8.1,0,8.2,3.9,8.2,12.9v27.5c0,8.7-0.2,12.9-8.2,12.9
		v0.5H584.8z M655,794.3c13.6,0,19.9-5.8,19.9-19v-11.3c0-12.1,0.5-24,12.3-24v-0.5h-25.1v0.5c11.5,0,11.9,11.7,11.9,22.2v13.1
		c0,12.5-6.2,18-16.1,18c-10.8,0-11.5-11.6-11.5-21.4v-18.5c0-9.9,0.8-13.4,6.6-13.4v-0.5h-30.6v0.5c8.1,0,8.2,3.9,8.2,12.9v21.6
		C630.8,790.8,639.9,794.3,655,794.3z M724,796l21.1-54.4v38.5c0,9.9-0.2,12.7-7.5,12.7v0.5H769v-0.5c-8.2,0-8.2-4.3-8.2-13.4v-26.3
		c0-9.3,0-13.4,8.2-13.4v-0.5h-23.9l-13.4,34.5l-13.3-34.5h-27.1v0.5c9,0,10.5,3.5,10.5,12V769c0,11-0.2,23.9-12.3,23.9v0.5h25v-0.5
		c-11.8,0-11.9-12.3-11.9-22.4v-27.6L724,796z M794.2,793.7v-0.5c-10.6,0-8.1-10.5-5.1-18.3h17.4l2.6,5.8c3,6.6,3.7,12.5-3.5,12.5
		v0.5h32.6v-0.5c-5.5,0-8.5-4.1-12.9-13.2L805,737l-14.9,33.5c-4.1,9.2-9.7,22.6-18.9,22.6v0.5H794.2z M805.9,774h-17l1.5-3.5
		l6.9-15.6L805.9,774z M895.6,796v-32.3c0-12,0.5-23.9,12.4-23.9v-0.5h-25.1v0.5c11.6,0,11.9,11.8,11.9,22.4v10l-28.7-33h-26.2v0.5
		c11.5,0,12.4,5.9,12.4,14.4V769c0,12-0.5,23.9-12.4,23.9v0.5H865v-0.5c-11.6,0-11.9-11.8-11.9-22.4v-22.7L895.6,796z"/>
</g>
</svg>
