<svg xmlns="http://www.w3.org/2000/svg" width="908" height="796" viewBox="0 0 908 796">
    <g opacity=".168">
        <path d="M20.365 57.265c13.221 0 24.468-6.61 24.468-17.577 0-19.365-33.131-16.72-33.131-29.398 0-4.822 4.483-7.855 10.638-7.855 11.854 0 16.717 9.722 17.933 18.51h.532l-.988-19.054-5.775 1.555c-2.811-.777-8.13-1.71-12.462-1.71C10.562 1.735 0 7.801 0 18.066c0 18.821 33.51 17.344 33.51 30.098 0 5.211-5.09 8.4-12.462 8.4-13.981 0-18.996-12.833-20.212-21.932H.304L1.52 57.109l5.699-1.555c2.811.777 8.13 1.71 13.146 1.71zm61.261-.579v-.543c-9.021 0-9.337-3.96-9.342-13.158v-8.98h2.374c11.104 0 27.492-2.64 27.492-15.923 0-11.263-8.883-15.768-25.654-15.768H48.238v.543c8.105 0 8.267 3.88 8.27 12.88v27.507c-.003 8.721-.165 12.899-8.27 12.899v.543h33.388zm-7.48-23.137h-2.073V2.892h2.226c7.832 0 10.826 4.68 10.826 15.29 0 10.687-2.994 15.367-10.98 15.367zm41.338 23.137v-.54c-10.578 0-8.067-10.504-5.099-18.304h17.426l2.588 5.793c2.967 6.564 3.728 12.51-3.5 12.51v.541h32.569v-.54c-5.48 0-8.523-4.093-12.86-13.207L126.288 0l-14.915 33.517c-4.109 9.19-9.664 22.629-18.871 22.629v.54h22.98zm12.204-19.666h-17.026l1.548-3.506 6.888-15.583 8.59 19.089zm59.922 20.245c4.778 0 9.48-.934 12.134-1.711l5.613 1.555 1.213-21.698h-.53c-.911 9.021-6.068 21.154-17.9 21.154-12.513 0-14.257-15.788-14.257-27.065 0-11.277 1.744-27.065 14.258-27.065 11.83 0 16.988 12.133 17.898 21.154h.531l-1.213-21.698-5.613 1.555c-2.654-.777-7.356-1.71-12.134-1.71-16.306 0-30.413 11.432-30.413 27.764s14.107 27.765 30.413 27.765zm74.338-.579l3.642-23.147h-.759c-2.352 13.749-10.167 22.448-25.343 22.448-3.414 0-4.552-1.631-4.552-7.146V29.19c8.422 0 14.34 4.816 13.961 12.35h.531l1.29-25.088h-.531c-.455 8.31-6.83 12.195-15.251 12.195V3.013h7.587c13.051 0 18.21 6.291 19.5 18.02h.76l-1.897-18.72H211.11v.544c8.195 0 8.195 4.04 8.195 13.438v26.41c0 9.088 0 13.438-8.195 13.438v.543h50.838zm68.183 0v-.543c-8.2 0-8.2-4.35-8.2-13.438V3.013c13.059 0 18.222 5.903 19.512 17.632h.76l-1.899-18.331h-52.386l-1.898 18.331h.76c1.29-11.729 6.453-17.632 19.511-17.632v40.231c-.003 8.721-.164 12.899-8.2 12.899v.543h32.04zm44.987.579c14.737 0 28.942-10.11 28.942-27.765 0-16.565-12.99-27.765-28.942-27.765-15.953 0-28.943 11.2-28.943 27.765 0 17.654 14.205 27.765 28.942 27.765zm-.284-.579C363.2 56.686 363.2 38.614 363.2 29.5c0-8.88 0-27.186 11.634-27.186 11.4 0 11.629 17.58 11.633 26.642v1.101c-.004 9.273-.232 26.63-11.633 26.63zm80.297 0c15.13 0 24.407-5.825 24.407-15.535 0-12.35-17.032-14.37-25.091-14.447v-.156c7.603-.233 21.593-1.398 21.593-11.65 0-12.507-16.651-12.584-29.88-12.584h-21.67v.543c8.047 0 8.208 3.88 8.211 12.88v27.507c-.003 8.721-.164 12.899-8.211 12.899v.543h30.641zm-4.661-30.078h-2.145V2.892h1.991c8.273 0 10.494 4.227 10.494 11.662 0 8.297-2.374 12.054-10.34 12.054zm3.058 29.5c-4.97 0-5.203-1.697-5.203-9.024V27.186h2.563c10.328 0 12.192 5.322 12.192 14.037 0 10.103-2.873 14.885-9.552 14.885zm77.982.578l3.643-23.147h-.76c-2.351 13.749-10.167 22.448-25.342 22.448-3.415 0-4.553-1.631-4.553-7.146V29.19c8.422 0 14.34 4.816 13.961 12.35h.532l1.29-25.088h-.532c-.455 8.31-6.829 12.195-15.251 12.195V3.013h7.588c13.05 0 18.21 6.291 19.5 18.02h.759l-1.897-18.72h-49.775v.544c8.03 0 8.191 3.88 8.194 12.88v27.507c-.003 8.721-.164 12.899-8.195 12.899v.543h50.838zm53.315 0v-.543c-5.184 0-5.87-2.797-5.87-11.108V29.5h17.383v15.535c0 8.311-.686 11.108-5.87 11.108v.543h29.81v-.543c-8.235 0-8.235-4.35-8.235-13.438v-26.41c0-9.398 0-13.438 8.235-13.438v-.543h-29.81v.543c5.184 0 5.87 2.797 5.87 11.108v14.758h-17.383V13.965c0-8.311.686-11.108 5.87-11.108v-.543h-29.81v.543c8.07 0 8.23 3.88 8.234 12.88v27.507c-.003 8.721-.165 12.899-8.234 12.899v.543h29.81zm70.184.579c13.64 0 19.889-5.752 19.889-19.043V26.875c0-12.125.533-24.017 12.344-24.017v-.544h-25.07v.544c11.467 0 11.88 11.655 11.888 22.22v13.144c0 12.514-6.249 17.955-16.079 17.955-10.82 0-11.506-11.581-11.506-21.375V16.304c0-9.949.762-13.446 6.63-13.446v-.544h-30.558v.544c8.066 0 8.227 3.881 8.23 12.888v21.621c0 16.4 9.144 19.898 24.232 19.898zM724.03 59l21.06-54.447V43.09c-.005 9.925-.223 12.744-7.45 12.744v.54h31.323v-.54c-8.21 0-8.21-4.325-8.21-13.361V16.215c0-9.345 0-13.36 8.21-13.36v-.541H745.09l-13.38 34.521-13.306-34.521h-27.066v.54c9.048 0 10.492 3.476 10.492 12.048V31.97c0 10.966-.228 23.864-12.316 23.864v.54h25.013v-.54c-11.785 0-11.86-12.28-11.86-22.397V5.79L724.03 59zm70.185-2.314v-.54c-10.578 0-8.067-10.504-5.099-18.304h17.426l2.588 5.793c2.967 6.564 3.728 12.51-3.5 12.51v.541h32.568v-.54c-5.478 0-8.522-4.093-12.86-13.207L805.02 0l-14.915 33.517c-4.109 9.19-9.664 22.629-18.872 22.629v.54h22.982zM805.85 37.02h-17.025l1.548-3.506 6.887-15.583 8.59 19.089zM895.632 59V26.718c0-12.048.534-23.864 12.368-23.864v-.54h-25.118v.54c11.605 0 11.91 11.816 11.91 22.397v10.04L866.086 2.314H839.9v.54c11.528 0 12.368 5.87 12.368 14.442V31.97c0 12.048-.534 23.864-12.368 23.864v.54h25.118v-.54c-11.605 0-11.91-11.816-11.91-22.397V10.732L895.632 59zM20.365 150.265c13.221 0 24.468-6.61 24.468-17.577 0-19.365-33.131-16.72-33.131-29.398 0-4.822 4.483-7.855 10.638-7.855 11.854 0 16.717 9.722 17.933 18.51h.532l-.988-19.054-5.775 1.555c-2.811-.777-8.13-1.71-12.462-1.71-11.018 0-21.58 6.066-21.58 16.331 0 18.821 33.51 17.344 33.51 30.098 0 5.211-5.09 8.4-12.462 8.4-13.981 0-18.996-12.833-20.212-21.932H.304l1.216 22.476 5.699-1.555c2.811.777 8.13 1.71 13.146 1.71zm61.261-.579v-.543c-9.021 0-9.337-3.96-9.342-13.158v-8.98h2.374c11.104 0 27.492-2.64 27.492-15.923 0-11.263-8.883-15.768-25.654-15.768H48.238v.543c8.105 0 8.267 3.88 8.27 12.88v27.507c-.003 8.721-.165 12.899-8.27 12.899v.543h33.388zm-7.48-23.137h-2.073V95.892h2.226c7.832 0 10.826 4.68 10.826 15.29 0 10.687-2.994 15.367-10.98 15.367zm41.338 23.137v-.54c-10.578 0-8.067-10.504-5.099-18.304h17.426l2.588 5.793c2.967 6.564 3.728 12.51-3.5 12.51v.541h32.569v-.54c-5.48 0-8.523-4.093-12.86-13.207L126.288 93l-14.915 33.517c-4.109 9.19-9.664 22.629-18.871 22.629v.54h22.98zm12.204-19.666h-17.026l1.548-3.506 6.888-15.583 8.59 19.089zm59.922 20.245c4.778 0 9.48-.934 12.134-1.711l5.613 1.555 1.213-21.698h-.53c-.911 9.021-6.068 21.154-17.9 21.154-12.513 0-14.257-15.788-14.257-27.065 0-11.277 1.744-27.065 14.258-27.065 11.83 0 16.988 12.133 17.898 21.154h.531l-1.213-21.698-5.613 1.555c-2.654-.777-7.356-1.71-12.134-1.71-16.306 0-30.413 11.432-30.413 27.764s14.107 27.765 30.413 27.765zm74.338-.579l3.642-23.147h-.759c-2.352 13.749-10.167 22.448-25.343 22.448-3.414 0-4.552-1.631-4.552-7.146V122.19c8.422 0 14.34 4.816 13.961 12.35h.531l1.29-25.088h-.531c-.455 8.31-6.83 12.195-15.251 12.195V96.013h7.587c13.051 0 18.21 6.291 19.5 18.02h.76l-1.897-18.72H211.11v.544c8.195 0 8.195 4.04 8.195 13.438v26.41c0 9.088 0 13.438-8.195 13.438v.543h50.838zm68.183 0v-.543c-8.2 0-8.2-4.35-8.2-13.438V96.013c13.059 0 18.222 5.903 19.512 17.632h.76l-1.899-18.331h-52.386l-1.898 18.331h.76c1.29-11.729 6.453-17.632 19.511-17.632v40.231c-.003 8.721-.164 12.899-8.2 12.899v.543h32.04zm44.987.579c14.737 0 28.942-10.11 28.942-27.765 0-16.565-12.99-27.765-28.942-27.765-15.953 0-28.943 11.2-28.943 27.765 0 17.654 14.205 27.765 28.942 27.765zm-.284-.579c-11.634 0-11.634-18.072-11.634-27.186 0-8.88 0-27.186 11.634-27.186 11.4 0 11.629 17.58 11.633 26.642v1.101c-.004 9.273-.232 26.63-11.633 26.63zm80.297 0c15.13 0 24.407-5.825 24.407-15.535 0-12.35-17.032-14.37-25.091-14.447v-.156c7.603-.233 21.593-1.398 21.593-11.65 0-12.507-16.651-12.584-29.88-12.584h-21.67v.543c8.047 0 8.208 3.88 8.211 12.88v27.507c-.003 8.721-.164 12.899-8.211 12.899v.543h30.641zm-4.661-30.078h-2.145V95.892h1.991c8.273 0 10.494 4.227 10.494 11.662 0 8.297-2.374 12.054-10.34 12.054zm3.058 29.5c-4.97 0-5.203-1.697-5.203-9.024v-19.898h2.563c10.328 0 12.192 5.322 12.192 14.037 0 10.103-2.873 14.885-9.552 14.885zm77.982.578l3.643-23.147h-.76c-2.351 13.749-10.167 22.448-25.342 22.448-3.415 0-4.553-1.631-4.553-7.146V122.19c8.422 0 14.34 4.816 13.961 12.35h.532l1.29-25.088h-.532c-.455 8.31-6.829 12.195-15.251 12.195V96.013h7.588c13.05 0 18.21 6.291 19.5 18.02h.759l-1.897-18.72h-49.775v.544c8.03 0 8.191 3.88 8.194 12.88v27.507c-.003 8.721-.164 12.899-8.195 12.899v.543h50.838zm53.315 0v-.543c-5.184 0-5.87-2.797-5.87-11.108V122.5h17.383v15.535c0 8.311-.686 11.108-5.87 11.108v.543h29.81v-.543c-8.235 0-8.235-4.35-8.235-13.438v-26.41c0-9.398 0-13.438 8.235-13.438v-.543h-29.81v.543c5.184 0 5.87 2.797 5.87 11.108v14.758h-17.383v-14.758c0-8.311.686-11.108 5.87-11.108v-.543h-29.81v.543c8.07 0 8.23 3.88 8.234 12.88v27.507c-.003 8.721-.165 12.899-8.234 12.899v.543h29.81zm70.184.579c13.64 0 19.889-5.752 19.889-19.043v-11.347c0-12.125.533-24.017 12.344-24.017v-.544h-25.07v.544c11.467 0 11.88 11.655 11.888 22.22v13.144c0 12.514-6.249 17.955-16.079 17.955-10.82 0-11.506-11.581-11.506-21.375v-18.498c0-9.949.762-13.446 6.63-13.446v-.544h-30.558v.544c8.066 0 8.227 3.881 8.23 12.888v21.621c0 16.4 9.144 19.898 24.232 19.898zM724.03 152l21.06-54.447v38.537c-.005 9.925-.223 12.744-7.45 12.744v.54h31.323v-.54c-8.21 0-8.21-4.325-8.21-13.361v-26.258c0-9.345 0-13.36 8.21-13.36v-.541H745.09l-13.38 34.521-13.306-34.521h-27.066v.54c9.048 0 10.492 3.476 10.492 12.048v17.068c0 10.966-.228 23.864-12.316 23.864v.54h25.013v-.54c-11.785 0-11.86-12.28-11.86-22.397V98.79L724.03 152zm70.185-2.314v-.54c-10.578 0-8.067-10.504-5.099-18.304h17.426l2.588 5.793c2.967 6.564 3.728 12.51-3.5 12.51v.541h32.568v-.54c-5.478 0-8.522-4.093-12.86-13.207L805.02 93l-14.915 33.517c-4.109 9.19-9.664 22.629-18.872 22.629v.54h22.982zm11.636-19.666h-17.025l1.548-3.506 6.887-15.583 8.59 19.089zM895.632 152v-32.282c0-12.048.534-23.864 12.368-23.864v-.54h-25.118v.54c11.605 0 11.91 11.816 11.91 22.397v10.04l-28.706-32.977H839.9v.54c11.528 0 12.368 5.87 12.368 14.442v14.674c0 12.048-.534 23.864-12.368 23.864v.54h25.118v-.54c-11.605 0-11.91-11.816-11.91-22.397v-22.705L895.632 152zM20.365 241.282c13.221 0 24.468-6.615 24.468-17.588 0-19.377-33.131-16.73-33.131-29.415 0-4.825 4.483-7.86 10.638-7.86 11.854 0 16.717 9.727 17.933 18.52h.532l-.988-19.065-5.775 1.556c-2.811-.778-8.13-1.712-12.462-1.712-11.018 0-21.58 6.07-21.58 16.343 0 18.832 33.51 17.353 33.51 30.116 0 5.214-5.09 8.404-12.462 8.404-13.981 0-18.996-12.84-20.212-21.945H.304l1.216 22.49 5.699-1.556c2.811.778 8.13 1.712 13.146 1.712zm61.261-.573v-.544c-9.021 0-9.337-3.962-9.342-13.169v-8.987h2.374c11.104 0 27.492-2.643 27.492-15.937 0-11.272-8.883-15.78-25.654-15.78H48.238v.543c8.105 0 8.267 3.883 8.27 12.891v27.53c-.003 8.728-.165 12.909-8.27 12.909v.544h33.388zm-7.48-23.486h-2.073v-30.359h2.226c7.832 0 10.826 4.635 10.826 15.141 0 10.583-2.994 15.218-10.98 15.218zm41.338 23.486v-.541c-10.578 0-8.067-10.507-5.099-18.31h17.426l2.588 5.794c2.967 6.567 3.728 12.516-3.5 12.516v.54h32.569v-.54c-5.48 0-8.523-4.095-12.86-13.212L126.288 184l-14.915 33.53c-4.109 9.195-9.664 22.638-18.871 22.638v.54h22.98zm12.204-19.476h-17.026l1.548-3.472 6.888-15.43 8.59 18.902zm59.922 20.049c4.778 0 9.48-.934 12.134-1.712l5.613 1.556 1.213-21.712h-.53c-.911 9.027-6.068 21.167-17.9 21.167-12.513 0-14.257-15.797-14.257-27.081 0-11.284 1.744-27.081 14.258-27.081 11.83 0 16.988 12.14 17.898 21.167h.531l-1.213-21.712-5.613 1.556c-2.654-.778-7.356-1.712-12.134-1.712-16.306 0-30.413 11.44-30.413 27.782s14.107 27.782 30.413 27.782zm74.338-.573l3.642-23.167h-.759c-2.352 13.76-10.167 22.467-25.343 22.467-3.414 0-4.552-1.632-4.552-7.152V213.19c8.422 0 14.34 4.82 13.961 12.36h.531l1.29-25.11h-.531c-.455 8.319-6.83 12.206-15.251 12.206V186.99h7.587c13.051 0 18.21 6.297 19.5 18.035h.76l-1.897-18.735H211.11v.544c8.195 0 8.195 4.043 8.195 13.45v26.43c0 9.096 0 13.45-8.195 13.45v.544h50.838zm68.183 0v-.544c-8.2 0-8.2-4.354-8.2-13.45v-39.724c13.059 0 18.222 5.908 19.512 17.647h.76l-1.899-18.347h-52.386l-1.898 18.347h.76c1.29-11.739 6.453-17.647 19.511-17.647v40.265c-.003 8.728-.164 12.909-8.2 12.909v.544h32.04zm44.987.573c14.737 0 28.942-10.117 28.942-27.782 0-16.576-12.99-27.782-28.942-27.782-15.953 0-28.943 11.206-28.943 27.782 0 17.665 14.205 27.782 28.942 27.782zm-.284-.573c-11.634 0-11.634-18.087-11.634-27.209 0-8.888 0-27.209 11.634-27.209 11.4 0 11.629 17.596 11.633 26.665v1.102c-.004 9.28-.232 26.65-11.633 26.65zm80.297 0c15.13 0 24.407-5.83 24.407-15.548 0-12.36-17.032-14.382-25.091-14.46v-.155c7.603-.233 21.593-1.4 21.593-11.661 0-12.516-16.651-12.594-29.88-12.594h-21.67v.544c8.047 0 8.208 3.883 8.211 12.891v27.53c-.003 8.728-.164 12.909-8.211 12.909v.544h30.641zm-4.661-30.36h-2.145v-23.485h1.991c8.273 0 10.494 4.186 10.494 11.549 0 8.216-2.374 11.937-10.34 11.937zm3.058 29.787c-4.97 0-5.203-1.714-5.203-9.115v-20.099h2.563c10.328 0 12.192 5.376 12.192 14.179 0 10.205-2.873 15.035-9.552 15.035zm77.982.573l3.643-23.167h-.76c-2.351 13.76-10.167 22.467-25.342 22.467-3.415 0-4.553-1.632-4.553-7.152V213.19c8.422 0 14.34 4.82 13.961 12.36h.532l1.29-25.11h-.532c-.455 8.319-6.829 12.206-15.251 12.206V186.99h7.588c13.05 0 18.21 6.297 19.5 18.035h.759l-1.897-18.735h-49.775v.544c8.03 0 8.191 3.883 8.194 12.891v27.53c-.003 8.728-.164 12.909-8.195 12.909v.544h50.838zm53.315 0v-.544c-5.184 0-5.87-2.799-5.87-11.117V213.5h17.383v15.548c0 8.318-.686 11.117-5.87 11.117v.544h29.81v-.544c-8.235 0-8.235-4.354-8.235-13.45v-26.43c0-9.407 0-13.45 8.235-13.45v-.544h-29.81v.544c5.184 0 5.87 2.799 5.87 11.117v14.77h-17.383v-14.77c0-8.318.686-11.117 5.87-11.117v-.544h-29.81v.544c8.07 0 8.23 3.883 8.234 12.891v27.53c-.003 8.728-.165 12.909-8.234 12.909v.544h29.81zm70.184.573c13.64 0 19.889-5.756 19.889-19.056V210.87c0-12.134.533-24.034 12.344-24.034v-.545h-25.07v.545c11.467 0 11.88 11.663 11.888 22.236v13.154c0 12.522-6.249 17.967-16.079 17.967-10.82 0-11.506-11.59-11.506-21.39v-18.511c0-9.956.762-13.456 6.63-13.456v-.545h-30.558v.545c8.066 0 8.227 3.884 8.23 12.897v21.637c0 16.411 9.144 19.912 24.232 19.912zM724.03 243l21.06-54.468v38.551c-.005 9.93-.223 12.75-7.45 12.75v.54h31.323v-.54c-8.21 0-8.21-4.327-8.21-13.367v-26.268c0-9.348 0-13.366 8.21-13.366v-.54H745.09l-13.38 34.534-13.306-34.535h-27.066v.541c9.048 0 10.492 3.477 10.492 12.053v17.074c0 10.97-.228 23.873-12.316 23.873v.541h25.013v-.54c-11.785 0-11.86-12.285-11.86-22.406v-27.659L724.03 243zm70.185-2.291v-.541c-10.578 0-8.067-10.507-5.099-18.31h17.426l2.588 5.794c2.967 6.567 3.728 12.516-3.5 12.516v.54h32.568v-.54c-5.478 0-8.522-4.095-12.86-13.212L805.02 184l-14.915 33.53c-4.109 9.195-9.664 22.638-18.872 22.638v.54h22.982zm11.636-19.476h-17.025l1.548-3.472 6.887-15.43 8.59 18.902zM895.632 243v-32.295c0-12.052.534-23.873 12.368-23.873v-.54h-25.118v.54c11.605 0 11.91 11.82 11.91 22.405v10.044l-28.706-32.99H839.9v.541c11.528 0 12.368 5.872 12.368 14.448v14.679c0 12.053-.534 23.873-12.368 23.873v.541h25.118v-.54c-11.605 0-11.91-11.821-11.91-22.406v-22.714L895.632 243zM20.365 334.265c13.221 0 24.468-6.61 24.468-17.577 0-19.365-33.131-16.72-33.131-29.398 0-4.822 4.483-7.855 10.638-7.855 11.854 0 16.717 9.722 17.933 18.51h.532l-.988-19.054-5.775 1.555c-2.811-.777-8.13-1.71-12.462-1.71-11.018 0-21.58 6.066-21.58 16.331 0 18.821 33.51 17.344 33.51 30.098 0 5.211-5.09 8.4-12.462 8.4-13.981 0-18.996-12.833-20.212-21.932H.304l1.216 22.476 5.699-1.555c2.811.777 8.13 1.71 13.146 1.71zm61.261-.579v-.543c-9.021 0-9.337-3.96-9.342-13.158v-8.98h2.374c11.104 0 27.492-2.64 27.492-15.923 0-11.263-8.883-15.768-25.654-15.768H48.238v.543c8.105 0 8.267 3.88 8.27 12.88v27.507c-.003 8.721-.165 12.899-8.27 12.899v.543h33.388zm-7.48-23.137h-2.073v-30.657h2.226c7.832 0 10.826 4.68 10.826 15.29 0 10.687-2.994 15.367-10.98 15.367zm41.338 23.137v-.54c-10.578 0-8.067-10.504-5.099-18.304h17.426l2.588 5.793c2.967 6.564 3.728 12.51-3.5 12.51v.541h32.569v-.54c-5.48 0-8.523-4.093-12.86-13.207L126.288 277l-14.915 33.517c-4.109 9.19-9.664 22.629-18.871 22.629v.54h22.98zm12.204-19.666h-17.026l1.548-3.506 6.888-15.583 8.59 19.089zm59.922 20.245c4.778 0 9.48-.934 12.134-1.711l5.613 1.555 1.213-21.698h-.53c-.911 9.021-6.068 21.154-17.9 21.154-12.513 0-14.257-15.788-14.257-27.065 0-11.277 1.744-27.065 14.258-27.065 11.83 0 16.988 12.133 17.898 21.154h.531l-1.213-21.698-5.613 1.555c-2.654-.777-7.356-1.71-12.134-1.71-16.306 0-30.413 11.432-30.413 27.764s14.107 27.765 30.413 27.765zm74.338-.579l3.642-23.147h-.759c-2.352 13.749-10.167 22.448-25.343 22.448-3.414 0-4.552-1.631-4.552-7.146V306.19c8.422 0 14.34 4.816 13.961 12.35h.531l1.29-25.088h-.531c-.455 8.31-6.83 12.195-15.251 12.195v-25.633h7.587c13.051 0 18.21 6.291 19.5 18.02h.76l-1.897-18.72H211.11v.544c8.195 0 8.195 4.04 8.195 13.438v26.41c0 9.088 0 13.438-8.195 13.438v.543h50.838zm68.183 0v-.543c-8.2 0-8.2-4.35-8.2-13.438v-39.692c13.059 0 18.222 5.903 19.512 17.632h.76l-1.899-18.331h-52.386l-1.898 18.331h.76c1.29-11.729 6.453-17.632 19.511-17.632v40.231c-.003 8.721-.164 12.899-8.2 12.899v.543h32.04zm44.987.579c14.737 0 28.942-10.11 28.942-27.765 0-16.565-12.99-27.765-28.942-27.765-15.953 0-28.943 11.2-28.943 27.765 0 17.654 14.205 27.765 28.942 27.765zm-.284-.579c-11.634 0-11.634-18.072-11.634-27.186 0-8.88 0-27.186 11.634-27.186 11.4 0 11.629 17.58 11.633 26.642v1.101c-.004 9.273-.232 26.63-11.633 26.63zm80.297 0c15.13 0 24.407-5.825 24.407-15.535 0-12.35-17.032-14.37-25.091-14.447v-.156c7.603-.233 21.593-1.398 21.593-11.65 0-12.507-16.651-12.584-29.88-12.584h-21.67v.543c8.047 0 8.208 3.88 8.211 12.88v27.507c-.003 8.721-.164 12.899-8.211 12.899v.543h30.641zm-4.661-30.078h-2.145v-23.716h1.991c8.273 0 10.494 4.227 10.494 11.662 0 8.297-2.374 12.054-10.34 12.054zm3.058 29.5c-4.97 0-5.203-1.697-5.203-9.024v-19.898h2.563c10.328 0 12.192 5.322 12.192 14.037 0 10.103-2.873 14.885-9.552 14.885zm77.982.578l3.643-23.147h-.76c-2.351 13.749-10.167 22.448-25.342 22.448-3.415 0-4.553-1.631-4.553-7.146V306.19c8.422 0 14.34 4.816 13.961 12.35h.532l1.29-25.088h-.532c-.455 8.31-6.829 12.195-15.251 12.195v-25.633h7.588c13.05 0 18.21 6.291 19.5 18.02h.759l-1.897-18.72h-49.775v.544c8.03 0 8.191 3.88 8.194 12.88v27.507c-.003 8.721-.164 12.899-8.195 12.899v.543h50.838zm53.315 0v-.543c-5.184 0-5.87-2.797-5.87-11.108V306.5h17.383v15.535c0 8.311-.686 11.108-5.87 11.108v.543h29.81v-.543c-8.235 0-8.235-4.35-8.235-13.438v-26.41c0-9.398 0-13.438 8.235-13.438v-.543h-29.81v.543c5.184 0 5.87 2.797 5.87 11.108v14.758h-17.383v-14.758c0-8.311.686-11.108 5.87-11.108v-.543h-29.81v.543c8.07 0 8.23 3.88 8.234 12.88v27.507c-.003 8.721-.165 12.899-8.234 12.899v.543h29.81zm70.184.579c13.64 0 19.889-5.752 19.889-19.043v-11.347c0-12.125.533-24.017 12.344-24.017v-.544h-25.07v.544c11.467 0 11.88 11.655 11.888 22.22v13.144c0 12.514-6.249 17.955-16.079 17.955-10.82 0-11.506-11.581-11.506-21.375v-18.498c0-9.949.762-13.446 6.63-13.446v-.544h-30.558v.544c8.066 0 8.227 3.881 8.23 12.888v21.621c0 16.4 9.144 19.898 24.232 19.898zM724.03 336l21.06-54.447v38.537c-.005 9.925-.223 12.744-7.45 12.744v.54h31.323v-.54c-8.21 0-8.21-4.325-8.21-13.361v-26.258c0-9.345 0-13.36 8.21-13.36v-.541H745.09l-13.38 34.521-13.306-34.521h-27.066v.54c9.048 0 10.492 3.476 10.492 12.048v17.068c0 10.966-.228 23.864-12.316 23.864v.54h25.013v-.54c-11.785 0-11.86-12.28-11.86-22.397V282.79L724.03 336zm70.185-2.314v-.54c-10.578 0-8.067-10.504-5.099-18.304h17.426l2.588 5.793c2.967 6.564 3.728 12.51-3.5 12.51v.541h32.568v-.54c-5.478 0-8.522-4.093-12.86-13.207L805.02 277l-14.915 33.517c-4.109 9.19-9.664 22.629-18.872 22.629v.54h22.982zm11.636-19.666h-17.025l1.548-3.506 6.887-15.583 8.59 19.089zM895.632 336v-32.282c0-12.048.534-23.864 12.368-23.864v-.54h-25.118v.54c11.605 0 11.91 11.816 11.91 22.397v10.04l-28.706-32.977H839.9v.54c11.528 0 12.368 5.87 12.368 14.442v14.674c0 12.048-.534 23.864-12.368 23.864v.54h25.118v-.54c-11.605 0-11.91-11.816-11.91-22.397v-22.705L895.632 336zM20.365 425.265c13.221 0 24.468-6.61 24.468-17.577 0-19.365-33.131-16.72-33.131-29.398 0-4.822 4.483-7.855 10.638-7.855 11.854 0 16.717 9.722 17.933 18.51h.532l-.988-19.054-5.775 1.555c-2.811-.777-8.13-1.71-12.462-1.71-11.018 0-21.58 6.066-21.58 16.331 0 18.821 33.51 17.344 33.51 30.098 0 5.211-5.09 8.4-12.462 8.4-13.981 0-18.996-12.833-20.212-21.932H.304l1.216 22.476 5.699-1.555c2.811.777 8.13 1.71 13.146 1.71zm61.261-.579v-.543c-9.021 0-9.337-3.96-9.342-13.158v-8.98h2.374c11.104 0 27.492-2.64 27.492-15.923 0-11.263-8.883-15.768-25.654-15.768H48.238v.543c8.105 0 8.267 3.88 8.27 12.88v27.507c-.003 8.721-.165 12.899-8.27 12.899v.543h33.388zm-7.48-23.137h-2.073v-30.657h2.226c7.832 0 10.826 4.68 10.826 15.29 0 10.687-2.994 15.367-10.98 15.367zm41.338 23.137v-.54c-10.578 0-8.067-10.504-5.099-18.304h17.426l2.588 5.793c2.967 6.564 3.728 12.51-3.5 12.51v.541h32.569v-.54c-5.48 0-8.523-4.093-12.86-13.207L126.288 368l-14.915 33.517c-4.109 9.19-9.664 22.629-18.871 22.629v.54h22.98zm12.204-19.666h-17.026l1.548-3.506 6.888-15.583 8.59 19.089zm59.922 20.245c4.778 0 9.48-.934 12.134-1.711l5.613 1.555 1.213-21.698h-.53c-.911 9.021-6.068 21.154-17.9 21.154-12.513 0-14.257-15.788-14.257-27.065 0-11.277 1.744-27.065 14.258-27.065 11.83 0 16.988 12.133 17.898 21.154h.531l-1.213-21.698-5.613 1.555c-2.654-.777-7.356-1.71-12.134-1.71-16.306 0-30.413 11.432-30.413 27.764s14.107 27.765 30.413 27.765zm74.338-.579l3.642-23.147h-.759c-2.352 13.749-10.167 22.448-25.343 22.448-3.414 0-4.552-1.631-4.552-7.146V397.19c8.422 0 14.34 4.816 13.961 12.35h.531l1.29-25.088h-.531c-.455 8.31-6.83 12.195-15.251 12.195v-25.633h7.587c13.051 0 18.21 6.291 19.5 18.02h.76l-1.897-18.72H211.11v.544c8.195 0 8.195 4.04 8.195 13.438v26.41c0 9.088 0 13.438-8.195 13.438v.543h50.838zm68.183 0v-.543c-8.2 0-8.2-4.35-8.2-13.438v-39.692c13.059 0 18.222 5.903 19.512 17.632h.76l-1.899-18.331h-52.386l-1.898 18.331h.76c1.29-11.729 6.453-17.632 19.511-17.632v40.231c-.003 8.721-.164 12.899-8.2 12.899v.543h32.04zm44.987.579c14.737 0 28.942-10.11 28.942-27.765 0-16.565-12.99-27.765-28.942-27.765-15.953 0-28.943 11.2-28.943 27.765 0 17.654 14.205 27.765 28.942 27.765zm-.284-.579c-11.634 0-11.634-18.072-11.634-27.186 0-8.88 0-27.186 11.634-27.186 11.4 0 11.629 17.58 11.633 26.642v1.101c-.004 9.273-.232 26.63-11.633 26.63zm80.297 0c15.13 0 24.407-5.825 24.407-15.535 0-12.35-17.032-14.37-25.091-14.447v-.156c7.603-.233 21.593-1.398 21.593-11.65 0-12.507-16.651-12.584-29.88-12.584h-21.67v.543c8.047 0 8.208 3.88 8.211 12.88v27.507c-.003 8.721-.164 12.899-8.211 12.899v.543h30.641zm-4.661-30.078h-2.145v-23.716h1.991c8.273 0 10.494 4.227 10.494 11.662 0 8.297-2.374 12.054-10.34 12.054zm3.058 29.5c-4.97 0-5.203-1.697-5.203-9.024v-19.898h2.563c10.328 0 12.192 5.322 12.192 14.037 0 10.103-2.873 14.885-9.552 14.885zm77.982.578l3.643-23.147h-.76c-2.351 13.749-10.167 22.448-25.342 22.448-3.415 0-4.553-1.631-4.553-7.146V397.19c8.422 0 14.34 4.816 13.961 12.35h.532l1.29-25.088h-.532c-.455 8.31-6.829 12.195-15.251 12.195v-25.633h7.588c13.05 0 18.21 6.291 19.5 18.02h.759l-1.897-18.72h-49.775v.544c8.03 0 8.191 3.88 8.194 12.88v27.507c-.003 8.721-.164 12.899-8.195 12.899v.543h50.838zm53.315 0v-.543c-5.184 0-5.87-2.797-5.87-11.108V397.5h17.383v15.535c0 8.311-.686 11.108-5.87 11.108v.543h29.81v-.543c-8.235 0-8.235-4.35-8.235-13.438v-26.41c0-9.398 0-13.438 8.235-13.438v-.543h-29.81v.543c5.184 0 5.87 2.797 5.87 11.108v14.758h-17.383v-14.758c0-8.311.686-11.108 5.87-11.108v-.543h-29.81v.543c8.07 0 8.23 3.88 8.234 12.88v27.507c-.003 8.721-.165 12.899-8.234 12.899v.543h29.81zm70.184.579c13.64 0 19.889-5.752 19.889-19.043v-11.347c0-12.125.533-24.017 12.344-24.017v-.544h-25.07v.544c11.467 0 11.88 11.655 11.888 22.22v13.144c0 12.514-6.249 17.955-16.079 17.955-10.82 0-11.506-11.581-11.506-21.375v-18.498c0-9.949.762-13.446 6.63-13.446v-.544h-30.558v.544c8.066 0 8.227 3.881 8.23 12.888v21.621c0 16.4 9.144 19.898 24.232 19.898zM724.03 427l21.06-54.447v38.537c-.005 9.925-.223 12.744-7.45 12.744v.54h31.323v-.54c-8.21 0-8.21-4.325-8.21-13.361v-26.258c0-9.345 0-13.36 8.21-13.36v-.541H745.09l-13.38 34.521-13.306-34.521h-27.066v.54c9.048 0 10.492 3.476 10.492 12.048v17.068c0 10.966-.228 23.864-12.316 23.864v.54h25.013v-.54c-11.785 0-11.86-12.28-11.86-22.397V373.79L724.03 427zm70.185-2.314v-.54c-10.578 0-8.067-10.504-5.099-18.304h17.426l2.588 5.793c2.967 6.564 3.728 12.51-3.5 12.51v.541h32.568v-.54c-5.478 0-8.522-4.093-12.86-13.207L805.02 368l-14.915 33.517c-4.109 9.19-9.664 22.629-18.872 22.629v.54h22.982zm11.636-19.666h-17.025l1.548-3.506 6.887-15.583 8.59 19.089zM895.632 427v-32.282c0-12.048.534-23.864 12.368-23.864v-.54h-25.118v.54c11.605 0 11.91 11.816 11.91 22.397v10.04l-28.706-32.977H839.9v.54c11.528 0 12.368 5.87 12.368 14.442v14.674c0 12.048-.534 23.864-12.368 23.864v.54h25.118v-.54c-11.605 0-11.91-11.816-11.91-22.397v-22.705L895.632 427zM20.365 517.265c13.221 0 24.468-6.61 24.468-17.577 0-19.365-33.131-16.72-33.131-29.398 0-4.822 4.483-7.855 10.638-7.855 11.854 0 16.717 9.722 17.933 18.51h.532l-.988-19.054-5.775 1.555c-2.811-.777-8.13-1.71-12.462-1.71-11.018 0-21.58 6.066-21.58 16.331 0 18.821 33.51 17.344 33.51 30.098 0 5.211-5.09 8.4-12.462 8.4-13.981 0-18.996-12.833-20.212-21.932H.304l1.216 22.476 5.699-1.555c2.811.777 8.13 1.71 13.146 1.71zm61.261-.579v-.543c-9.021 0-9.337-3.96-9.342-13.158v-8.98h2.374c11.104 0 27.492-2.64 27.492-15.923 0-11.263-8.883-15.768-25.654-15.768H48.238v.543c8.105 0 8.267 3.88 8.27 12.88v27.507c-.003 8.721-.165 12.899-8.27 12.899v.543h33.388zm-7.48-23.137h-2.073v-30.657h2.226c7.832 0 10.826 4.68 10.826 15.29 0 10.687-2.994 15.367-10.98 15.367zm41.338 23.137v-.54c-10.578 0-8.067-10.504-5.099-18.304h17.426l2.588 5.793c2.967 6.564 3.728 12.51-3.5 12.51v.541h32.569v-.54c-5.48 0-8.523-4.093-12.86-13.207L126.288 460l-14.915 33.517c-4.109 9.19-9.664 22.629-18.871 22.629v.54h22.98zm12.204-19.666h-17.026l1.548-3.506 6.888-15.583 8.59 19.089zm59.922 20.245c4.778 0 9.48-.934 12.134-1.711l5.613 1.555 1.213-21.698h-.53c-.911 9.021-6.068 21.154-17.9 21.154-12.513 0-14.257-15.788-14.257-27.065 0-11.277 1.744-27.065 14.258-27.065 11.83 0 16.988 12.133 17.898 21.154h.531l-1.213-21.698-5.613 1.555c-2.654-.777-7.356-1.71-12.134-1.71-16.306 0-30.413 11.432-30.413 27.764s14.107 27.765 30.413 27.765zm74.338-.579l3.642-23.147h-.759c-2.352 13.749-10.167 22.448-25.343 22.448-3.414 0-4.552-1.631-4.552-7.146V489.19c8.422 0 14.34 4.816 13.961 12.35h.531l1.29-25.088h-.531c-.455 8.31-6.83 12.195-15.251 12.195v-25.633h7.587c13.051 0 18.21 6.291 19.5 18.02h.76l-1.897-18.72H211.11v.544c8.195 0 8.195 4.04 8.195 13.438v26.41c0 9.088 0 13.438-8.195 13.438v.543h50.838zm68.183 0v-.543c-8.2 0-8.2-4.35-8.2-13.438v-39.692c13.059 0 18.222 5.903 19.512 17.632h.76l-1.899-18.331h-52.386l-1.898 18.331h.76c1.29-11.729 6.453-17.632 19.511-17.632v40.231c-.003 8.721-.164 12.899-8.2 12.899v.543h32.04zm44.987.579c14.737 0 28.942-10.11 28.942-27.765 0-16.565-12.99-27.765-28.942-27.765-15.953 0-28.943 11.2-28.943 27.765 0 17.654 14.205 27.765 28.942 27.765zm-.284-.579c-11.634 0-11.634-18.072-11.634-27.186 0-8.88 0-27.186 11.634-27.186 11.4 0 11.629 17.58 11.633 26.642v1.101c-.004 9.273-.232 26.63-11.633 26.63zm80.297 0c15.13 0 24.407-5.825 24.407-15.535 0-12.35-17.032-14.37-25.091-14.447v-.156c7.603-.233 21.593-1.398 21.593-11.65 0-12.507-16.651-12.584-29.88-12.584h-21.67v.543c8.047 0 8.208 3.88 8.211 12.88v27.507c-.003 8.721-.164 12.899-8.211 12.899v.543h30.641zm-4.661-30.078h-2.145v-23.716h1.991c8.273 0 10.494 4.227 10.494 11.662 0 8.297-2.374 12.054-10.34 12.054zm3.058 29.5c-4.97 0-5.203-1.697-5.203-9.024v-19.898h2.563c10.328 0 12.192 5.322 12.192 14.037 0 10.103-2.873 14.885-9.552 14.885zm77.982.578l3.643-23.147h-.76c-2.351 13.749-10.167 22.448-25.342 22.448-3.415 0-4.553-1.631-4.553-7.146V489.19c8.422 0 14.34 4.816 13.961 12.35h.532l1.29-25.088h-.532c-.455 8.31-6.829 12.195-15.251 12.195v-25.633h7.588c13.05 0 18.21 6.291 19.5 18.02h.759l-1.897-18.72h-49.775v.544c8.03 0 8.191 3.88 8.194 12.88v27.507c-.003 8.721-.164 12.899-8.195 12.899v.543h50.838zm53.315 0v-.543c-5.184 0-5.87-2.797-5.87-11.108V489.5h17.383v15.535c0 8.311-.686 11.108-5.87 11.108v.543h29.81v-.543c-8.235 0-8.235-4.35-8.235-13.438v-26.41c0-9.398 0-13.438 8.235-13.438v-.543h-29.81v.543c5.184 0 5.87 2.797 5.87 11.108v14.758h-17.383v-14.758c0-8.311.686-11.108 5.87-11.108v-.543h-29.81v.543c8.07 0 8.23 3.88 8.234 12.88v27.507c-.003 8.721-.165 12.899-8.234 12.899v.543h29.81zm70.184.579c13.64 0 19.889-5.752 19.889-19.043v-11.347c0-12.125.533-24.017 12.344-24.017v-.544h-25.07v.544c11.467 0 11.88 11.655 11.888 22.22v13.144c0 12.514-6.249 17.955-16.079 17.955-10.82 0-11.506-11.581-11.506-21.375v-18.498c0-9.949.762-13.446 6.63-13.446v-.544h-30.558v.544c8.066 0 8.227 3.881 8.23 12.888v21.621c0 16.4 9.144 19.898 24.232 19.898zM724.03 519l21.06-54.447v38.537c-.005 9.925-.223 12.744-7.45 12.744v.54h31.323v-.54c-8.21 0-8.21-4.325-8.21-13.361v-26.258c0-9.345 0-13.36 8.21-13.36v-.541H745.09l-13.38 34.521-13.306-34.521h-27.066v.54c9.048 0 10.492 3.476 10.492 12.048v17.068c0 10.966-.228 23.864-12.316 23.864v.54h25.013v-.54c-11.785 0-11.86-12.28-11.86-22.397V465.79L724.03 519zm70.185-2.314v-.54c-10.578 0-8.067-10.504-5.099-18.304h17.426l2.588 5.793c2.967 6.564 3.728 12.51-3.5 12.51v.541h32.568v-.54c-5.478 0-8.522-4.093-12.86-13.207L805.02 460l-14.915 33.517c-4.109 9.19-9.664 22.629-18.872 22.629v.54h22.982zm11.636-19.666h-17.025l1.548-3.506 6.887-15.583 8.59 19.089zM895.632 519v-32.282c0-12.048.534-23.864 12.368-23.864v-.54h-25.118v.54c11.605 0 11.91 11.816 11.91 22.397v10.04l-28.706-32.977H839.9v.54c11.528 0 12.368 5.87 12.368 14.442v14.674c0 12.048-.534 23.864-12.368 23.864v.54h25.118v-.54c-11.605 0-11.91-11.816-11.91-22.397v-22.705L895.632 519zM20.365 610.282c13.221 0 24.468-6.615 24.468-17.588 0-19.377-33.131-16.73-33.131-29.415 0-4.825 4.483-7.86 10.638-7.86 11.854 0 16.717 9.727 17.933 18.52h.532l-.988-19.065-5.775 1.556c-2.811-.778-8.13-1.712-12.462-1.712-11.018 0-21.58 6.07-21.58 16.343 0 18.832 33.51 17.353 33.51 30.116 0 5.214-5.09 8.404-12.462 8.404-13.981 0-18.996-12.84-20.212-21.945H.304l1.216 22.49 5.699-1.556c2.811.778 8.13 1.712 13.146 1.712zm61.261-.573v-.544c-9.021 0-9.337-3.962-9.342-13.169v-8.987h2.374c11.104 0 27.492-2.643 27.492-15.937 0-11.272-8.883-15.78-25.654-15.78H48.238v.543c8.105 0 8.267 3.883 8.27 12.891v27.53c-.003 8.728-.165 12.909-8.27 12.909v.544h33.388zm-7.48-23.486h-2.073v-30.359h2.226c7.832 0 10.826 4.635 10.826 15.141 0 10.583-2.994 15.218-10.98 15.218zm41.338 23.486v-.541c-10.578 0-8.067-10.507-5.099-18.31h17.426l2.588 5.794c2.967 6.567 3.728 12.516-3.5 12.516v.54h32.569v-.54c-5.48 0-8.523-4.095-12.86-13.212L126.288 553l-14.915 33.53c-4.109 9.195-9.664 22.638-18.871 22.638v.54h22.98zm12.204-19.476h-17.026l1.548-3.472 6.888-15.43 8.59 18.902zm59.922 20.049c4.778 0 9.48-.934 12.134-1.712l5.613 1.556 1.213-21.712h-.53c-.911 9.027-6.068 21.167-17.9 21.167-12.513 0-14.257-15.797-14.257-27.081 0-11.284 1.744-27.081 14.258-27.081 11.83 0 16.988 12.14 17.898 21.167h.531l-1.213-21.712-5.613 1.556c-2.654-.778-7.356-1.712-12.134-1.712-16.306 0-30.413 11.44-30.413 27.782s14.107 27.782 30.413 27.782zm74.338-.573l3.642-23.167h-.759c-2.352 13.76-10.167 22.467-25.343 22.467-3.414 0-4.552-1.632-4.552-7.152V582.19c8.422 0 14.34 4.82 13.961 12.36h.531l1.29-25.11h-.531c-.455 8.319-6.83 12.206-15.251 12.206V555.99h7.587c13.051 0 18.21 6.297 19.5 18.035h.76l-1.897-18.735H211.11v.544c8.195 0 8.195 4.043 8.195 13.45v26.43c0 9.096 0 13.45-8.195 13.45v.544h50.838zm68.183 0v-.544c-8.2 0-8.2-4.354-8.2-13.45v-39.724c13.059 0 18.222 5.908 19.512 17.647h.76l-1.899-18.347h-52.386l-1.898 18.347h.76c1.29-11.739 6.453-17.647 19.511-17.647v40.265c-.003 8.728-.164 12.909-8.2 12.909v.544h32.04zm44.987.573c14.737 0 28.942-10.117 28.942-27.782 0-16.576-12.99-27.782-28.942-27.782-15.953 0-28.943 11.206-28.943 27.782 0 17.665 14.205 27.782 28.942 27.782zm-.284-.573c-11.634 0-11.634-18.087-11.634-27.209 0-8.888 0-27.209 11.634-27.209 11.4 0 11.629 17.596 11.633 26.665v1.102c-.004 9.28-.232 26.65-11.633 26.65zm80.297 0c15.13 0 24.407-5.83 24.407-15.548 0-12.36-17.032-14.382-25.091-14.46v-.155c7.603-.233 21.593-1.4 21.593-11.661 0-12.516-16.651-12.594-29.88-12.594h-21.67v.544c8.047 0 8.208 3.883 8.211 12.891v27.53c-.003 8.728-.164 12.909-8.211 12.909v.544h30.641zm-4.661-30.36h-2.145v-23.485h1.991c8.273 0 10.494 4.186 10.494 11.549 0 8.216-2.374 11.937-10.34 11.937zm3.058 29.787c-4.97 0-5.203-1.714-5.203-9.115v-20.099h2.563c10.328 0 12.192 5.376 12.192 14.179 0 10.205-2.873 15.035-9.552 15.035zm77.982.573l3.643-23.167h-.76c-2.351 13.76-10.167 22.467-25.342 22.467-3.415 0-4.553-1.632-4.553-7.152V582.19c8.422 0 14.34 4.82 13.961 12.36h.532l1.29-25.11h-.532c-.455 8.319-6.829 12.206-15.251 12.206V555.99h7.588c13.05 0 18.21 6.297 19.5 18.035h.759l-1.897-18.735h-49.775v.544c8.03 0 8.191 3.883 8.194 12.891v27.53c-.003 8.728-.164 12.909-8.195 12.909v.544h50.838zm53.315 0v-.544c-5.184 0-5.87-2.799-5.87-11.117V582.5h17.383v15.548c0 8.318-.686 11.117-5.87 11.117v.544h29.81v-.544c-8.235 0-8.235-4.354-8.235-13.45v-26.43c0-9.407 0-13.45 8.235-13.45v-.544h-29.81v.544c5.184 0 5.87 2.799 5.87 11.117v14.77h-17.383v-14.77c0-8.318.686-11.117 5.87-11.117v-.544h-29.81v.544c8.07 0 8.23 3.883 8.234 12.891v27.53c-.003 8.728-.165 12.909-8.234 12.909v.544h29.81zm70.184.573c13.64 0 19.889-5.756 19.889-19.056V579.87c0-12.134.533-24.034 12.344-24.034v-.545h-25.07v.545c11.467 0 11.88 11.663 11.888 22.236v13.154c0 12.522-6.249 17.967-16.079 17.967-10.82 0-11.506-11.59-11.506-21.39v-18.511c0-9.956.762-13.456 6.63-13.456v-.545h-30.558v.545c8.066 0 8.227 3.884 8.23 12.897v21.637c0 16.411 9.144 19.912 24.232 19.912zM724.03 612l21.06-54.468v38.551c-.005 9.93-.223 12.75-7.45 12.75v.54h31.323v-.54c-8.21 0-8.21-4.327-8.21-13.367v-26.268c0-9.348 0-13.366 8.21-13.366v-.54H745.09l-13.38 34.534-13.306-34.535h-27.066v.541c9.048 0 10.492 3.477 10.492 12.053v17.074c0 10.97-.228 23.873-12.316 23.873v.541h25.013v-.54c-11.785 0-11.86-12.285-11.86-22.406v-27.659L724.03 612zm70.185-2.291v-.541c-10.578 0-8.067-10.507-5.099-18.31h17.426l2.588 5.794c2.967 6.567 3.728 12.516-3.5 12.516v.54h32.568v-.54c-5.478 0-8.522-4.095-12.86-13.212L805.02 553l-14.915 33.53c-4.109 9.195-9.664 22.638-18.872 22.638v.54h22.982zm11.636-19.476h-17.025l1.548-3.472 6.887-15.43 8.59 18.902zM895.632 612v-32.295c0-12.052.534-23.873 12.368-23.873v-.54h-25.118v.54c11.605 0 11.91 11.82 11.91 22.405v10.044l-28.706-32.99H839.9v.541c11.528 0 12.368 5.872 12.368 14.448v14.679c0 12.053-.534 23.873-12.368 23.873v.541h25.118v-.54c-11.605 0-11.91-11.821-11.91-22.406v-22.714L895.632 612zM20.365 701.265c13.221 0 24.468-6.61 24.468-17.577 0-19.365-33.131-16.72-33.131-29.398 0-4.822 4.483-7.855 10.638-7.855 11.854 0 16.717 9.722 17.933 18.51h.532l-.988-19.054-5.775 1.555c-2.811-.777-8.13-1.71-12.462-1.71-11.018 0-21.58 6.066-21.58 16.331 0 18.821 33.51 17.344 33.51 30.098 0 5.211-5.09 8.4-12.462 8.4-13.981 0-18.996-12.833-20.212-21.932H.304l1.216 22.476 5.699-1.555c2.811.777 8.13 1.71 13.146 1.71zm61.261-.579v-.543c-9.021 0-9.337-3.96-9.342-13.158v-8.98h2.374c11.104 0 27.492-2.64 27.492-15.923 0-11.263-8.883-15.768-25.654-15.768H48.238v.543c8.105 0 8.267 3.88 8.27 12.88v27.507c-.003 8.721-.165 12.899-8.27 12.899v.543h33.388zm-7.48-23.137h-2.073v-30.657h2.226c7.832 0 10.826 4.68 10.826 15.29 0 10.687-2.994 15.367-10.98 15.367zm41.338 23.137v-.54c-10.578 0-8.067-10.504-5.099-18.304h17.426l2.588 5.793c2.967 6.564 3.728 12.51-3.5 12.51v.541h32.569v-.54c-5.48 0-8.523-4.093-12.86-13.207L126.288 644l-14.915 33.517c-4.109 9.19-9.664 22.629-18.871 22.629v.54h22.98zm12.204-19.666h-17.026l1.548-3.506 6.888-15.583 8.59 19.089zm59.922 20.245c4.778 0 9.48-.934 12.134-1.711l5.613 1.555 1.213-21.698h-.53c-.911 9.021-6.068 21.154-17.9 21.154-12.513 0-14.257-15.788-14.257-27.065 0-11.277 1.744-27.065 14.258-27.065 11.83 0 16.988 12.133 17.898 21.154h.531l-1.213-21.698-5.613 1.555c-2.654-.777-7.356-1.71-12.134-1.71-16.306 0-30.413 11.432-30.413 27.764s14.107 27.765 30.413 27.765zm74.338-.579l3.642-23.147h-.759c-2.352 13.749-10.167 22.448-25.343 22.448-3.414 0-4.552-1.631-4.552-7.146V673.19c8.422 0 14.34 4.816 13.961 12.35h.531l1.29-25.088h-.531c-.455 8.31-6.83 12.195-15.251 12.195v-25.633h7.587c13.051 0 18.21 6.291 19.5 18.02h.76l-1.897-18.72H211.11v.544c8.195 0 8.195 4.04 8.195 13.438v26.41c0 9.088 0 13.438-8.195 13.438v.543h50.838zm68.183 0v-.543c-8.2 0-8.2-4.35-8.2-13.438v-39.692c13.059 0 18.222 5.903 19.512 17.632h.76l-1.899-18.331h-52.386l-1.898 18.331h.76c1.29-11.729 6.453-17.632 19.511-17.632v40.231c-.003 8.721-.164 12.899-8.2 12.899v.543h32.04zm44.987.579c14.737 0 28.942-10.11 28.942-27.765 0-16.565-12.99-27.765-28.942-27.765-15.953 0-28.943 11.2-28.943 27.765 0 17.654 14.205 27.765 28.942 27.765zm-.284-.579c-11.634 0-11.634-18.072-11.634-27.186 0-8.88 0-27.186 11.634-27.186 11.4 0 11.629 17.58 11.633 26.642v1.101c-.004 9.273-.232 26.63-11.633 26.63zm80.297 0c15.13 0 24.407-5.825 24.407-15.535 0-12.35-17.032-14.37-25.091-14.447v-.156c7.603-.233 21.593-1.398 21.593-11.65 0-12.507-16.651-12.584-29.88-12.584h-21.67v.543c8.047 0 8.208 3.88 8.211 12.88v27.507c-.003 8.721-.164 12.899-8.211 12.899v.543h30.641zm-4.661-30.078h-2.145v-23.716h1.991c8.273 0 10.494 4.227 10.494 11.662 0 8.297-2.374 12.054-10.34 12.054zm3.058 29.5c-4.97 0-5.203-1.697-5.203-9.024v-19.898h2.563c10.328 0 12.192 5.322 12.192 14.037 0 10.103-2.873 14.885-9.552 14.885zm77.982.578l3.643-23.147h-.76c-2.351 13.749-10.167 22.448-25.342 22.448-3.415 0-4.553-1.631-4.553-7.146V673.19c8.422 0 14.34 4.816 13.961 12.35h.532l1.29-25.088h-.532c-.455 8.31-6.829 12.195-15.251 12.195v-25.633h7.588c13.05 0 18.21 6.291 19.5 18.02h.759l-1.897-18.72h-49.775v.544c8.03 0 8.191 3.88 8.194 12.88v27.507c-.003 8.721-.164 12.899-8.195 12.899v.543h50.838zm53.315 0v-.543c-5.184 0-5.87-2.797-5.87-11.108V673.5h17.383v15.535c0 8.311-.686 11.108-5.87 11.108v.543h29.81v-.543c-8.235 0-8.235-4.35-8.235-13.438v-26.41c0-9.398 0-13.438 8.235-13.438v-.543h-29.81v.543c5.184 0 5.87 2.797 5.87 11.108v14.758h-17.383v-14.758c0-8.311.686-11.108 5.87-11.108v-.543h-29.81v.543c8.07 0 8.23 3.88 8.234 12.88v27.507c-.003 8.721-.165 12.899-8.234 12.899v.543h29.81zm70.184.579c13.64 0 19.889-5.752 19.889-19.043v-11.347c0-12.125.533-24.017 12.344-24.017v-.544h-25.07v.544c11.467 0 11.88 11.655 11.888 22.22v13.144c0 12.514-6.249 17.955-16.079 17.955-10.82 0-11.506-11.581-11.506-21.375v-18.498c0-9.949.762-13.446 6.63-13.446v-.544h-30.558v.544c8.066 0 8.227 3.881 8.23 12.888v21.621c0 16.4 9.144 19.898 24.232 19.898zM724.03 703l21.06-54.447v38.537c-.005 9.925-.223 12.744-7.45 12.744v.54h31.323v-.54c-8.21 0-8.21-4.325-8.21-13.361v-26.258c0-9.345 0-13.36 8.21-13.36v-.541H745.09l-13.38 34.521-13.306-34.521h-27.066v.54c9.048 0 10.492 3.476 10.492 12.048v17.068c0 10.966-.228 23.864-12.316 23.864v.54h25.013v-.54c-11.785 0-11.86-12.28-11.86-22.397V649.79L724.03 703zm70.185-2.314v-.54c-10.578 0-8.067-10.504-5.099-18.304h17.426l2.588 5.793c2.967 6.564 3.728 12.51-3.5 12.51v.541h32.568v-.54c-5.478 0-8.522-4.093-12.86-13.207L805.02 644l-14.915 33.517c-4.109 9.19-9.664 22.629-18.872 22.629v.54h22.982zm11.636-19.666h-17.025l1.548-3.506 6.887-15.583 8.59 19.089zM895.632 703v-32.282c0-12.048.534-23.864 12.368-23.864v-.54h-25.118v.54c11.605 0 11.91 11.816 11.91 22.397v10.04l-28.706-32.977H839.9v.54c11.528 0 12.368 5.87 12.368 14.442v14.674c0 12.048-.534 23.864-12.368 23.864v.54h25.118v-.54c-11.605 0-11.91-11.816-11.91-22.397v-22.705L895.632 703zM20.365 794.265c13.221 0 24.468-6.61 24.468-17.577 0-19.365-33.131-16.72-33.131-29.398 0-4.822 4.483-7.855 10.638-7.855 11.854 0 16.717 9.722 17.933 18.51h.532l-.988-19.054-5.775 1.555c-2.811-.777-8.13-1.71-12.462-1.71-11.018 0-21.58 6.066-21.58 16.331 0 18.821 33.51 17.344 33.51 30.098 0 5.211-5.09 8.4-12.462 8.4-13.981 0-18.996-12.833-20.212-21.932H.304l1.216 22.476 5.699-1.555c2.811.777 8.13 1.71 13.146 1.71zm61.261-.579v-.543c-9.021 0-9.337-3.96-9.342-13.158v-8.98h2.374c11.104 0 27.492-2.64 27.492-15.923 0-11.263-8.883-15.768-25.654-15.768H48.238v.543c8.105 0 8.267 3.88 8.27 12.88v27.507c-.003 8.721-.165 12.899-8.27 12.899v.543h33.388zm-7.48-23.137h-2.073v-30.657h2.226c7.832 0 10.826 4.68 10.826 15.29 0 10.687-2.994 15.367-10.98 15.367zm41.338 23.137v-.54c-10.578 0-8.067-10.504-5.099-18.304h17.426l2.588 5.793c2.967 6.564 3.728 12.51-3.5 12.51v.541h32.569v-.54c-5.48 0-8.523-4.093-12.86-13.207L126.288 737l-14.915 33.517c-4.109 9.19-9.664 22.629-18.871 22.629v.54h22.98zm12.204-19.666h-17.026l1.548-3.506 6.888-15.583 8.59 19.089zm59.922 20.245c4.778 0 9.48-.934 12.134-1.711l5.613 1.555 1.213-21.698h-.53c-.911 9.021-6.068 21.154-17.9 21.154-12.513 0-14.257-15.788-14.257-27.065 0-11.277 1.744-27.065 14.258-27.065 11.83 0 16.988 12.133 17.898 21.154h.531l-1.213-21.698-5.613 1.555c-2.654-.777-7.356-1.71-12.134-1.71-16.306 0-30.413 11.432-30.413 27.764s14.107 27.765 30.413 27.765zm74.338-.579l3.642-23.147h-.759c-2.352 13.749-10.167 22.448-25.343 22.448-3.414 0-4.552-1.631-4.552-7.146V766.19c8.422 0 14.34 4.816 13.961 12.35h.531l1.29-25.088h-.531c-.455 8.31-6.83 12.195-15.251 12.195v-25.633h7.587c13.051 0 18.21 6.291 19.5 18.02h.76l-1.897-18.72H211.11v.544c8.195 0 8.195 4.04 8.195 13.438v26.41c0 9.088 0 13.438-8.195 13.438v.543h50.838zm68.183 0v-.543c-8.2 0-8.2-4.35-8.2-13.438v-39.692c13.059 0 18.222 5.903 19.512 17.632h.76l-1.899-18.331h-52.386l-1.898 18.331h.76c1.29-11.729 6.453-17.632 19.511-17.632v40.231c-.003 8.721-.164 12.899-8.2 12.899v.543h32.04zm44.987.579c14.737 0 28.942-10.11 28.942-27.765 0-16.565-12.99-27.765-28.942-27.765-15.953 0-28.943 11.2-28.943 27.765 0 17.654 14.205 27.765 28.942 27.765zm-.284-.579c-11.634 0-11.634-18.072-11.634-27.186 0-8.88 0-27.186 11.634-27.186 11.4 0 11.629 17.58 11.633 26.642v1.101c-.004 9.273-.232 26.63-11.633 26.63zm80.297 0c15.13 0 24.407-5.825 24.407-15.535 0-12.35-17.032-14.37-25.091-14.447v-.156c7.603-.233 21.593-1.398 21.593-11.65 0-12.507-16.651-12.584-29.88-12.584h-21.67v.543c8.047 0 8.208 3.88 8.211 12.88v27.507c-.003 8.721-.164 12.899-8.211 12.899v.543h30.641zm-4.661-30.078h-2.145v-23.716h1.991c8.273 0 10.494 4.227 10.494 11.662 0 8.297-2.374 12.054-10.34 12.054zm3.058 29.5c-4.97 0-5.203-1.697-5.203-9.024v-19.898h2.563c10.328 0 12.192 5.322 12.192 14.037 0 10.103-2.873 14.885-9.552 14.885zm77.982.578l3.643-23.147h-.76c-2.351 13.749-10.167 22.448-25.342 22.448-3.415 0-4.553-1.631-4.553-7.146V766.19c8.422 0 14.34 4.816 13.961 12.35h.532l1.29-25.088h-.532c-.455 8.31-6.829 12.195-15.251 12.195v-25.633h7.588c13.05 0 18.21 6.291 19.5 18.02h.759l-1.897-18.72h-49.775v.544c8.03 0 8.191 3.88 8.194 12.88v27.507c-.003 8.721-.164 12.899-8.195 12.899v.543h50.838zm53.315 0v-.543c-5.184 0-5.87-2.797-5.87-11.108V766.5h17.383v15.535c0 8.311-.686 11.108-5.87 11.108v.543h29.81v-.543c-8.235 0-8.235-4.35-8.235-13.438v-26.41c0-9.398 0-13.438 8.235-13.438v-.543h-29.81v.543c5.184 0 5.87 2.797 5.87 11.108v14.758h-17.383v-14.758c0-8.311.686-11.108 5.87-11.108v-.543h-29.81v.543c8.07 0 8.23 3.88 8.234 12.88v27.507c-.003 8.721-.165 12.899-8.234 12.899v.543h29.81zm70.184.579c13.64 0 19.889-5.752 19.889-19.043v-11.347c0-12.125.533-24.017 12.344-24.017v-.544h-25.07v.544c11.467 0 11.88 11.655 11.888 22.22v13.144c0 12.514-6.249 17.955-16.079 17.955-10.82 0-11.506-11.581-11.506-21.375v-18.498c0-9.949.762-13.446 6.63-13.446v-.544h-30.558v.544c8.066 0 8.227 3.881 8.23 12.888v21.621c0 16.4 9.144 19.898 24.232 19.898zM724.03 796l21.06-54.447v38.537c-.005 9.925-.223 12.744-7.45 12.744v.54h31.323v-.54c-8.21 0-8.21-4.325-8.21-13.361v-26.258c0-9.345 0-13.36 8.21-13.36v-.541H745.09l-13.38 34.521-13.306-34.521h-27.066v.54c9.048 0 10.492 3.476 10.492 12.048v17.068c0 10.966-.228 23.864-12.316 23.864v.54h25.013v-.54c-11.785 0-11.86-12.28-11.86-22.397V742.79L724.03 796zm70.185-2.314v-.54c-10.578 0-8.067-10.504-5.099-18.304h17.426l2.588 5.793c2.967 6.564 3.728 12.51-3.5 12.51v.541h32.568v-.54c-5.478 0-8.522-4.093-12.86-13.207L805.02 737l-14.915 33.517c-4.109 9.19-9.664 22.629-18.872 22.629v.54h22.982zm11.636-19.666h-17.025l1.548-3.506 6.887-15.583 8.59 19.089zM895.632 796v-32.282c0-12.048.534-23.864 12.368-23.864v-.54h-25.118v.54c11.605 0 11.91 11.816 11.91 22.397v10.04l-28.706-32.977H839.9v.54c11.528 0 12.368 5.87 12.368 14.442v14.674c0 12.048-.534 23.864-12.368 23.864v.54h25.118v-.54c-11.605 0-11.91-11.816-11.91-22.397v-22.705L895.632 796z"/>
    </g>
</svg>
