<svg xmlns="http://www.w3.org/2000/svg" xmlns:xlink="http://www.w3.org/1999/xlink" width="116" height="116" viewBox="0 0 116 116">
    <defs>
        <path id="prefix__a" d="M0 0L116 0 116 116 0 116z"/>
    </defs>
    <g fill="none" fill-rule="evenodd">
        <circle cx="55.5" cy="51.5" r="50.5" fill="#FFF"/>
        <mask id="prefix__b" fill="#fff">
            <use xlink:href="#prefix__a"/>
        </mask>
        <path fill="#231F20" d="M95.488 94.906h-8.52c5.862-2.118 9.09-7.818 10.695-15.982h.38l-2.555 15.982zM84.532 54.104c-7.371 0-7.534 2.375-7.534 10.535v23.69c0 3.603.117 5.574 1.068 6.577H63.883c1.95-1.47 1.95-4.624 1.95-9.562V64.64c0-7.369 0-10.535-5.854-10.535v-.427h24.553v.427zm-24.82 24.63l-2.206 16.172h-9.641c6.617-2.077 9.953-7.86 11.31-16.248l.006-.04h.546l-.015.117zM39.47 94.907H25.41c1.948-1.47 1.949-4.624 1.949-9.562V64.64c0-7.369 0-10.535-5.854-10.535v-.427h35.556l1.355 14.677h-.542c-.921-9.196-4.607-14.129-13.93-14.129h-5.42v20.097c6.017 0 10.57-3.045 10.895-9.561h.38l-.922 19.67h-.38c.272-5.907-3.956-9.683-9.973-9.683v15.407c0 2.464.265 3.938.944 4.751zm18.871-54.59l-.649 11.163H51.48c4.093-1.998 6.02-6.156 6.48-11.163h.38zM44.91 9.824c3.415 0 6.775.73 8.672 1.34l4.01-1.218 1.042 15.69h-.38c-.65-7.065-4.51-15.264-12.965-15.264-8.943 0-9.934 12.29-9.934 21.12 0 7.12.613 15.046 4.715 19.987h-5.466c-7.161-4.272-11.429-10.548-11.429-19.915 0-12.788 10.082-21.74 21.735-21.74zm15.989.426H83.77v.426c-5.854 0-5.854 3.167-5.854 10.536v20.705c0 4.938 0 8.091 1.95 9.562H64.801c1.949-1.47 1.95-4.624 1.95-9.562V21.212c0-7.369 0-10.536-5.854-10.536v-.426zM58 0C25.967 0 0 25.967 0 58c0 32.032 25.967 58 58 58 32.032 0 58-25.968 58-58 0-32.033-25.968-58-58-58z" mask="url(#prefix__b)"/>
    </g>
</svg>
