<svg xmlns="http://www.w3.org/2000/svg" width="42" height="33" viewBox="0 0 42 33">
    <g>
        <path d="M21.369 30.585H1.247c-.688 0-1.247.542-1.247 1.208 0 .323.13.625.365.853.235.228.549.354.882.354h20.122c.687 0 1.246-.542 1.246-1.208 0-.665-.559-1.207-1.246-1.207zM31.83 14.488H1.286c-.709 0-1.285.541-1.285 1.207 0 .323.134.625.376.854.243.228.565.353.909.353H31.83c.708 0 1.284-.542 1.284-1.207 0-.666-.576-1.207-1.284-1.207zM40.743 0H1.257C.564 0 0 .542 0 1.207c0 .323.13.626.368.854.237.228.553.354.889.354h39.486c.693 0 1.257-.542 1.257-1.208C42 .54 41.436 0 40.743 0z"/>
    </g>
</svg>
